<svg width="182" height="84" viewBox="0 0 182 84" fill="none" xmlns="http://www.w3.org/2000/svg">
<path opacity="0.5" d="M44.6421 47.9687L40.8225 52.0642C40.7399 52.1532 40.6398 52.2242 40.5286 52.2728C40.4173 52.3213 40.2972 52.3465 40.1758 52.3466H22.0693C21.9829 52.3466 21.8985 52.3213 21.8262 52.274C21.754 52.2267 21.6971 52.1593 21.6626 52.0802C21.628 52.001 21.6173 51.9135 21.6317 51.8284C21.6462 51.7433 21.6851 51.6641 21.7438 51.6008L25.5591 47.5053C25.6417 47.4163 25.7418 47.3453 25.853 47.2967C25.9643 47.2482 26.0844 47.223 26.2058 47.2229H44.3123C44.3994 47.2211 44.4852 47.2451 44.5587 47.2919C44.6322 47.3387 44.6904 47.4063 44.7255 47.486C44.7609 47.5657 44.7717 47.6541 44.7568 47.74C44.7419 47.8259 44.702 47.9055 44.6421 47.9687ZM40.8225 39.7194C40.7396 39.6309 40.6395 39.5602 40.5283 39.5116C40.4171 39.4631 40.2972 39.4377 40.1758 39.4371H22.0693C21.9829 39.4371 21.8985 39.4624 21.8262 39.5097C21.754 39.557 21.6971 39.6244 21.6626 39.7035C21.628 39.7827 21.6173 39.8702 21.6317 39.9553C21.6462 40.0404 21.6851 40.1196 21.7438 40.1829L25.5591 44.2806C25.642 44.3691 25.7422 44.4398 25.8533 44.4884C25.9645 44.537 26.0845 44.5623 26.2058 44.5629H44.3123C44.3985 44.5625 44.4826 44.537 44.5546 44.4895C44.6266 44.442 44.6831 44.3746 44.7173 44.2956C44.7516 44.2165 44.7622 44.1291 44.7475 44.0442C44.7331 43.9592 44.6943 43.8804 44.6357 43.8172L40.8225 39.7194ZM22.0693 36.7771H40.1758C40.2972 36.777 40.4173 36.7519 40.5286 36.7033C40.6398 36.6547 40.7399 36.5837 40.8225 36.4948L44.6421 32.3992C44.702 32.336 44.7419 32.2564 44.7568 32.1705C44.7717 32.0846 44.7609 31.9962 44.7255 31.9165C44.6904 31.8368 44.6322 31.7693 44.5587 31.7224C44.4852 31.6756 44.3994 31.6516 44.3123 31.6534H26.2058C26.0844 31.6535 25.9643 31.6787 25.853 31.7273C25.7418 31.7758 25.6417 31.8468 25.5591 31.9358L21.7438 36.0313C21.6851 36.0947 21.6462 36.1738 21.6317 36.2589C21.6173 36.3441 21.628 36.4316 21.6626 36.5107C21.6971 36.5899 21.754 36.6572 21.8262 36.7045C21.8985 36.7519 21.9829 36.7771 22.0693 36.7771Z" fill="#838383"/>
<g opacity="0.5">
<path d="M66.5951 40.4049H56.9081V37.2147H69.1128V34.0245H56.8758C56.4576 34.0222 56.0433 34.1023 55.6562 34.2602C55.269 34.4181 54.9166 34.6507 54.6196 34.9447C54.3223 35.2388 54.0859 35.5885 53.9238 35.9739C53.7617 36.3593 53.677 36.7729 53.6748 37.191V40.4243C53.6765 40.8427 53.7606 41.2568 53.9225 41.6426C54.0844 42.0286 54.3206 42.3788 54.6179 42.6733C54.9153 42.9678 55.2677 43.2008 55.6551 43.3589C56.0425 43.5171 56.4574 43.5974 56.8758 43.5951H66.5757V46.7853H53.9054V49.9755H66.5951C67.0133 49.9778 67.4276 49.8976 67.8147 49.7397C68.2019 49.5818 68.5543 49.3492 68.8513 49.0552C69.1486 48.7611 69.385 48.4115 69.5471 48.026C69.7092 47.6406 69.794 47.2271 69.7961 46.809V43.5757C69.7944 43.1572 69.7103 42.7432 69.5484 42.3573C69.3866 41.9714 69.1503 41.6212 68.8531 41.3267C68.5556 41.0322 68.2032 40.7992 67.8158 40.641C67.4285 40.4829 67.0135 40.4026 66.5951 40.4049Z" fill="#838383"/>
<path d="M85.361 34.024H75.6373C75.2185 34.0206 74.8031 34.0999 74.4149 34.2573C74.0269 34.4147 73.6736 34.6471 73.3755 34.9413C73.0772 35.2354 72.8401 35.5855 72.6776 35.9715C72.5148 36.3574 72.4299 36.7717 72.4277 37.1905V46.8086C72.4299 47.2274 72.5148 47.6416 72.6776 48.0276C72.8401 48.4136 73.0772 48.7637 73.3755 49.0578C73.6736 49.352 74.0269 49.5844 74.4149 49.7418C74.8031 49.8992 75.2185 49.9785 75.6373 49.975H85.361C85.7792 49.9773 86.1935 49.8972 86.5806 49.7393C86.9677 49.5814 87.3202 49.3488 87.6172 49.0548C87.9144 48.7607 88.1509 48.411 88.313 48.0256C88.4751 47.6402 88.5598 47.2266 88.562 46.8086V37.1905C88.5598 36.7724 88.4751 36.3589 88.313 35.9735C88.1509 35.5881 87.9144 35.2384 87.6172 34.9443C87.3202 34.6503 86.9677 34.4177 86.5806 34.2598C86.1935 34.1019 85.7792 34.0218 85.361 34.024ZM85.3373 46.7848H75.661V37.2142H85.333L85.3373 46.7848Z" fill="#838383"/>
<path d="M119.418 34.0242H109.934C109.516 34.0219 109.101 34.102 108.714 34.2599C108.327 34.4178 107.975 34.6504 107.678 34.9444C107.38 35.2385 107.144 35.5882 106.982 35.9736C106.82 36.359 106.735 36.7726 106.733 37.1907V49.9752H109.966V44.7351H119.408V49.9752H122.641V37.1907C122.639 36.7707 122.553 36.3554 122.39 35.9686C122.226 35.5818 121.988 35.2311 121.689 34.9368C121.389 34.6424 121.034 34.4103 120.645 34.2537C120.255 34.097 119.838 34.0191 119.418 34.0242ZM119.395 41.5448H109.953V37.2144H119.395V41.5448Z" fill="#838383"/>
<path d="M157.173 34.0245H147.689C147.271 34.0222 146.856 34.1023 146.469 34.2602C146.082 34.4181 145.73 34.6507 145.433 34.9447C145.135 35.2388 144.899 35.5885 144.737 35.9739C144.575 36.3593 144.49 36.7729 144.488 37.191V49.9755H147.721V44.7354H157.141V49.9755H160.374V37.191C160.372 36.7729 160.287 36.3593 160.125 35.9739C159.963 35.5885 159.727 35.2388 159.429 34.9447C159.132 34.6507 158.78 34.4181 158.393 34.2602C158.006 34.1023 157.591 34.0222 157.173 34.0245ZM157.141 41.5451H147.7V37.2147H157.141V41.5451Z" fill="#838383"/>
<path d="M138.387 46.7853H137.094L132.47 35.3609C132.312 34.9667 132.039 34.6289 131.687 34.3908C131.335 34.1527 130.921 34.0251 130.496 34.0244H127.627C127.348 34.023 127.071 34.0765 126.813 34.1819C126.555 34.2873 126.32 34.4425 126.122 34.6387C125.924 34.8349 125.766 35.0681 125.658 35.3252C125.55 35.5822 125.494 35.8581 125.493 36.1369V49.9755H128.726V37.2146H130.019L134.641 48.639C134.802 49.0324 135.077 49.3688 135.43 49.6053C135.783 49.8419 136.199 49.9677 136.624 49.9668H139.493C139.772 49.9683 140.048 49.9148 140.306 49.8094C140.564 49.704 140.799 49.5487 140.997 49.3526C141.196 49.1564 141.353 48.9232 141.461 48.6661C141.569 48.409 141.625 48.1332 141.627 47.8544V34.0244H138.387V46.7853Z" fill="#838383"/>
<path d="M94.6513 34.0244H91.418V46.8089C91.4201 47.228 91.5053 47.6424 91.668 48.0285C91.8308 48.4146 92.0681 48.7648 92.3664 49.059C92.6647 49.3532 93.0185 49.5855 93.4067 49.7428C93.7951 49.9001 94.2107 49.9791 94.6297 49.9754H104.33V46.7852H94.6513V34.0244Z" fill="#838383"/>
</g>
</svg>
