<svg width="203" height="84" viewBox="0 0 203 84" fill="none" xmlns="http://www.w3.org/2000/svg">
<path opacity="0.5" fill-rule="evenodd" clip-rule="evenodd" d="M37.6058 24.841C34.0274 25.0679 30.689 26.3394 27.9138 28.5323L27.5426 28.8257L34.8982 28.8452L42.2538 28.8648L40.575 29.5176C39.6517 29.8767 38.034 30.5071 36.9801 30.9186C35.9261 31.3301 34.3247 31.9549 33.4213 32.307C32.5179 32.6592 30.9165 33.2839 29.8626 33.6952C28.8086 34.1066 27.4008 34.6551 26.734 34.9143C26.0672 35.1734 25.4998 35.394 25.4731 35.4044C25.4349 35.4193 25.4224 34.9503 25.4144 33.1936L25.4043 30.9639L25.111 31.3351C23.3307 33.5882 22.147 36.2303 21.6539 39.0522C21.4649 40.1334 21.4199 40.7006 21.4199 42.0047C21.4199 43.3089 21.4649 43.8761 21.6539 44.9573C22.147 47.7791 23.3307 50.4214 25.111 52.6744L25.4043 53.0456L25.416 45.7262L25.4277 38.4069L25.6446 38.9544C25.8495 39.4715 26.1208 40.1661 27.7911 44.4489C28.7267 46.8479 29.7645 49.5083 30.476 51.3318C30.7991 52.1599 31.2659 53.3566 31.5133 53.9911C31.7607 54.6256 31.9719 55.1666 31.9826 55.1933C31.9979 55.2316 31.5385 55.244 29.8182 55.252L27.6344 55.2621L28.0445 55.5795C28.9779 56.3017 29.9344 56.897 31.0162 57.4289C32.855 58.333 34.663 58.8571 36.7845 59.1009C37.6054 59.1952 39.5625 59.1951 40.3824 59.1007C43.6789 58.7212 46.5686 57.5564 49.1291 55.5749L49.5334 55.2621L42.2595 55.251L34.9856 55.24L36.4717 54.6596C37.289 54.3404 38.7585 53.7669 39.7371 53.3852C40.7158 53.0034 42.326 52.3752 43.3154 51.9892C47.5114 50.3521 49.0265 49.7615 50.3742 49.2377L51.8016 48.683L51.8212 50.8157L51.8408 52.9485L52.0583 52.6779C53.6944 50.6429 54.9131 48.024 55.4327 45.4266C55.6962 44.1094 55.7472 43.5543 55.7472 42.0047C55.7472 40.4552 55.6962 39.9001 55.4327 38.5829C54.9127 35.9838 53.6953 33.3676 52.0583 31.3316L51.8408 31.061L51.8293 38.3514L51.8178 45.6417L51.72 45.4071C51.6269 45.1839 51.307 44.3658 49.5714 39.9125C49.1564 38.8478 48.4974 37.1584 48.1068 36.1582C47.7162 35.1581 47.1257 33.6446 46.7945 32.795C46.4634 31.9454 45.9832 30.7135 45.7275 30.0575L45.2626 28.8648L47.4497 28.8452L49.6368 28.8257L49.1806 28.4737C46.584 26.4705 43.748 25.3079 40.5388 24.9311C39.8987 24.8559 38.1955 24.8036 37.6058 24.841ZM33.4255 36.858L28.2285 42.055L33.4153 47.2409C36.268 50.0932 38.6154 52.4268 38.6319 52.4268C38.6483 52.4268 40.9979 50.0906 43.8532 47.2353L49.0446 42.0437L43.8531 36.8523C40.9977 33.9971 38.6527 31.6609 38.642 31.6609C38.6312 31.6609 36.2838 33.9996 33.4255 36.858ZM65.8215 40.6164V48.125H67.2881H68.7546V40.6164V33.1079H67.2881H65.8215V40.6164ZM85.4142 33.173C85.0604 33.2425 84.5596 33.4713 84.3192 33.6734C84.012 33.9316 83.7795 34.292 83.6243 34.7504C83.5783 34.8862 83.5594 35.2074 83.5411 36.1582L83.5175 37.3901L82.1592 37.4004L80.8009 37.4107L80.7905 38.4367L80.78 39.4628L80.6767 39.2673C80.4066 38.7565 79.9486 38.262 79.4273 37.9186C78.8796 37.5577 78.2461 37.3388 77.4441 37.2332C75.6062 36.9913 73.9956 37.5284 73.0109 38.7115L72.8217 38.9389V38.1743V37.4097H71.3943H69.9669V42.7673V48.125H71.3943H72.8217V45.2157C72.8217 42.6971 72.8302 42.2657 72.8845 42.0029C73.1364 40.7849 74.0047 39.8631 75.1842 39.5615C75.5824 39.4596 76.4233 39.4508 76.7855 39.5446C77.5227 39.7356 77.9893 40.2221 78.2283 41.0486C78.3111 41.3352 78.3127 41.3955 78.3256 44.7325L78.3387 48.125H79.7647H81.1906L81.1905 44.5956C81.1904 41.611 81.1811 41.0088 81.1303 40.6947C81.0795 40.3803 80.969 39.9374 80.8898 39.731C80.8723 39.6853 81.0777 39.6785 82.1933 39.6871L83.5175 39.6974L83.5275 43.9112L83.5374 48.125H84.9646H86.3919V43.9014V39.6779H88.7383H91.0847V43.9014V48.125H92.5122H93.9396V42.7673V37.4097H90.1635H86.3873L86.3994 36.6303C86.413 35.7513 86.4246 35.7132 86.7265 35.5548C86.8708 35.4791 86.9568 35.4731 88.0637 35.4615L89.2467 35.4491V34.2785V33.1079L87.4771 33.1116C86.0891 33.1145 85.6443 33.1278 85.4142 33.173ZM90.9674 34.5939V36.08H92.5122H94.0569V34.5939V33.1079H92.5122H90.9674V34.5939ZM106.806 34.5939V36.08H108.331H109.856V34.5939V33.1079H108.331H106.806V34.5939ZM130.27 35.2588V37.4097H128.79H127.31L127.052 37.9474C126.649 38.7878 126.181 39.7621 125.881 40.3818C125.73 40.6937 125.523 41.1248 125.421 41.3399C125.319 41.555 125.082 42.0478 124.895 42.4349C124.708 42.8221 124.439 43.3808 124.297 43.6766C124.155 43.9723 124.029 44.2143 124.016 44.2143C124.003 44.2143 123.764 43.7702 123.485 43.2275C122.845 41.9859 122.362 41.0485 121.745 39.8539C121.478 39.3376 121.088 38.5809 120.879 38.1723L120.498 37.4292L117.699 37.4192L114.901 37.4092V35.6691V33.9291H113.454H112.007V35.6694V37.4097H109.446H106.884V42.7673V48.125H108.311H109.739V43.9014V39.6779H110.871H112.003L112.017 42.9335C112.03 45.8107 112.04 46.221 112.097 46.463C112.33 47.4331 112.996 47.9479 114.197 48.0861C114.38 48.1072 115.458 48.1245 116.592 48.1247L118.655 48.125V46.9518V45.7786H117.176C115.632 45.7786 115.32 45.7537 115.126 45.6153C114.896 45.4517 114.901 45.5183 114.901 42.4693V39.6779H116.542H118.183L118.194 39.3584L118.206 39.039L118.651 39.8962C118.897 40.3676 119.154 40.8589 119.223 40.988C119.291 41.117 119.467 41.4514 119.613 41.731C119.759 42.0106 119.962 42.3978 120.064 42.5914C120.166 42.7849 120.57 43.5593 120.962 44.3121C121.937 46.183 122.158 46.6065 122.356 46.9787L122.527 47.2989V48.3399C122.527 49.47 122.502 49.6647 122.337 49.8171C122.142 49.9977 122.085 50.0022 119.94 50.0022H117.912V51.2368V52.4715L120.659 52.4553C123.115 52.4408 123.436 52.4318 123.681 52.3704C124.465 52.1738 124.981 51.7326 125.198 51.0737C125.233 50.9683 125.283 50.8205 125.31 50.7452C125.344 50.6478 125.362 50.1312 125.373 48.9554L125.388 47.3025L125.593 46.9023C125.707 46.6822 126.068 45.9741 126.397 45.3289C126.726 44.6836 127.149 43.8565 127.337 43.4908C127.525 43.1252 127.938 42.3156 128.256 41.6919C128.574 41.0681 128.961 40.3114 129.117 40.0103C129.272 39.7092 129.591 39.0844 129.825 38.622L130.251 37.7812L130.26 42.9531L130.27 48.125H131.737H133.203V45.3899V42.6549L136.185 42.639C139.04 42.6238 139.186 42.6196 139.617 42.5386C141.898 42.1098 143.271 40.845 143.629 38.8451C143.709 38.4005 143.719 37.4195 143.649 37.0381C143.249 34.8709 141.591 33.4622 139.07 33.1491C138.857 33.1225 137.233 33.1079 134.504 33.1079H130.27V35.2588ZM167.852 40.6164V48.125H169.279H170.707V40.6164V33.1079H169.279H167.852V40.6164ZM133.203 37.8772V40.0298L135.774 40.0297C137.898 40.0296 138.41 40.0191 138.716 39.9695C140.06 39.7514 140.712 39.072 140.712 37.8873C140.712 37.1864 140.551 36.7739 140.124 36.3786C139.852 36.1266 139.526 35.9601 139.065 35.8383C138.743 35.753 138.683 35.751 135.97 35.738L133.203 35.7246V37.8772ZM39.8935 36.6369C39.7752 36.7044 39.1417 37.07 38.4857 37.4494C37.8297 37.8288 36.3514 38.6815 35.2007 39.3444C34.05 40.0072 33.1037 40.5532 33.0979 40.5577C33.0921 40.5621 33.2346 40.8192 33.4144 41.1288C33.5943 41.4385 34.0813 42.2814 34.4967 43.002C34.9121 43.7225 35.3696 44.5144 35.5134 44.7618C35.6572 45.0092 36.0793 45.7395 36.4513 46.3847C36.8233 47.03 37.1325 47.5637 37.1384 47.5707C37.1442 47.5778 38.5277 46.7873 40.2127 45.814C41.8977 44.8408 43.4743 43.9312 43.7163 43.7928C43.9582 43.6544 44.1562 43.5345 44.1562 43.5264C44.1562 43.5139 43.0595 41.6075 41.6047 39.0913C41.412 38.7579 41.0069 38.054 40.7045 37.527C40.4021 37 40.1443 36.5565 40.1317 36.5415C40.119 36.5265 40.0118 36.5694 39.8935 36.6369ZM100.783 37.2176C99.5702 37.3733 98.5818 37.894 97.858 38.7589L97.6943 38.9544L97.6941 38.182L97.6938 37.4097H96.2664H94.839V42.7673V48.125H96.2664H97.6938L97.6951 45.3191C97.6962 42.7756 97.703 42.4743 97.7682 42.0983C97.9933 40.7991 98.928 39.7997 100.16 39.5404C100.488 39.4715 101.315 39.4634 101.612 39.5262C102.295 39.6707 102.798 40.1251 103.038 40.8142C103.243 41.4036 103.247 41.4819 103.247 44.928L103.247 48.125H104.674H106.102L106.101 44.752C106.1 42.8969 106.083 41.2061 106.062 40.9947C105.893 39.252 104.904 37.9543 103.364 37.4557C102.606 37.21 101.58 37.1153 100.783 37.2176ZM148.259 37.2192C147.367 37.3099 146.448 37.5662 145.743 37.9208C144.251 38.6719 143.286 39.9222 142.938 41.555C142.834 42.0398 142.796 42.9923 142.86 43.4807C143.196 46.0474 144.939 47.7395 147.751 48.2289C148.218 48.3101 149.552 48.342 150.06 48.2841C151.644 48.1034 152.917 47.5471 153.904 46.6044C154.365 46.1642 154.944 45.2458 155.127 44.6652C155.165 44.5463 155.207 44.4489 155.22 44.4489C155.234 44.4489 155.276 44.5467 155.314 44.6662C155.427 45.0249 155.787 45.6982 156.058 46.0566C156.985 47.2832 158.495 48.0701 160.324 48.2796C160.776 48.3314 161.826 48.3314 162.279 48.2797C164.808 47.991 166.68 46.6159 167.336 44.5649C167.551 43.8926 167.596 43.5704 167.595 42.7282C167.593 41.8593 167.525 41.4393 167.279 40.7746C167.005 40.0352 166.663 39.5038 166.093 38.9326C165.503 38.3404 164.643 37.8225 163.804 37.5546C161.784 36.9088 159.312 37.1123 157.665 38.0601C156.542 38.7063 155.706 39.6838 155.337 40.7839C155.288 40.9297 155.236 41.0564 155.222 41.0654C155.207 41.0743 155.157 40.9629 155.11 40.8178C154.993 40.4542 154.715 39.9212 154.451 39.554C154.17 39.1639 153.569 38.5802 153.177 38.3154C152.548 37.8915 151.628 37.5083 150.86 37.3505C150.086 37.1916 149.047 37.1391 148.259 37.2192ZM175.321 37.2195C174.85 37.2677 174.244 37.3953 173.824 37.5346C172.628 37.9311 171.765 38.6913 171.464 39.6141C171.324 40.0424 171.291 40.7755 171.39 41.2296C171.582 42.1024 172.121 42.7507 173.034 43.2066C173.67 43.5242 174.366 43.7227 175.81 43.9983C177.464 44.3137 177.844 44.4161 178.184 44.6366C178.396 44.7742 178.466 44.9018 178.468 45.1558C178.472 45.6846 177.993 45.9319 176.792 46.0202C175.028 46.1501 173.951 45.7133 173.737 44.7814L173.693 44.5858H172.249H170.805L170.817 44.7422C170.861 45.2962 171.098 45.9769 171.4 46.4203C172.046 47.3682 173.125 47.9589 174.708 48.232C175.027 48.2869 175.334 48.3005 176.24 48.2998C177.25 48.299 177.43 48.289 177.878 48.2089C179.139 47.9838 179.969 47.6028 180.592 46.9634C180.917 46.6296 181.179 46.1462 181.288 45.6808C181.368 45.3359 181.347 44.469 181.25 44.1165C180.946 43.0101 180.026 42.2478 178.446 41.7927C178.062 41.6821 177.646 41.5937 175.952 41.2627C174.759 41.0296 174.348 40.8512 174.23 40.5152C174.114 40.181 174.283 39.8858 174.699 39.6993C175.044 39.5444 175.447 39.4852 176.162 39.4842C177.175 39.4828 177.77 39.651 178.225 40.0666C178.42 40.2453 178.646 40.6098 178.646 40.7477C178.646 40.9353 178.596 40.9293 180.136 40.9293H181.58L181.557 40.7631C181.339 39.1532 180.489 38.129 178.907 37.5708C178 37.251 176.474 37.1014 175.321 37.2195ZM148.156 39.5608C146.88 39.8492 146.052 40.6827 145.77 41.9611C145.688 42.3335 145.689 43.2067 145.771 43.5495C145.958 44.3284 146.256 44.8432 146.779 45.2917C147.405 45.829 148.382 46.1049 149.413 46.0354C150.269 45.9777 150.806 45.7935 151.375 45.3624C151.917 44.9513 152.263 44.4016 152.469 43.6277C152.574 43.2289 152.565 42.2646 152.451 41.8288C152.129 40.6023 151.245 39.7803 149.986 39.5376C149.565 39.4565 148.562 39.4692 148.156 39.5608ZM160.422 39.539C159.777 39.6745 159.27 39.9338 158.838 40.348C158.155 41.0028 157.838 41.8816 157.894 42.9629C157.989 44.7792 159.156 45.9281 161.016 46.0353C162.944 46.1463 164.315 45.2111 164.665 43.5466C164.701 43.3792 164.723 43.0581 164.723 42.7307C164.723 42.2874 164.706 42.1236 164.628 41.8152C164.345 40.7009 163.55 39.897 162.431 39.5938C162.036 39.4868 160.827 39.4538 160.422 39.539Z" fill="#838383"/>
</svg>
