<svg width="136" height="84" viewBox="0 0 136 84" fill="none" xmlns="http://www.w3.org/2000/svg">
<g opacity="0.5">
<path d="M104.823 55.3497C104.389 55.3497 103.987 55.315 103.618 55.2455C103.255 55.1819 102.964 55.1067 102.748 55.0199L103.486 52.5724C103.949 52.7055 104.363 52.7691 104.726 52.7633C105.089 52.7575 105.409 52.6447 105.684 52.4248C105.966 52.2108 106.203 51.852 106.397 51.3486L106.669 50.6283L101.771 37.0195H105.148L108.261 47.0872H108.401L111.523 37.0195H114.908L109.501 51.9649C109.249 52.6707 108.914 53.2754 108.498 53.7788C108.082 54.2879 107.572 54.6756 106.968 54.9418C106.37 55.2137 105.655 55.3497 104.823 55.3497Z" fill="#838383"/>
<path d="M81.8486 50.3503V37.0193H84.891V39.2845H85.0493C85.3307 38.5208 85.7967 37.9248 86.4474 37.4966C87.0981 37.0627 87.8748 36.8457 88.7776 36.8457C89.6921 36.8457 90.4629 37.0656 91.0902 37.5053C91.7233 37.9393 92.1688 38.5323 92.4267 39.2845H92.5674C92.8664 38.5439 93.3705 37.9537 94.0798 37.514C94.795 37.0685 95.6421 36.8457 96.6211 36.8457C97.8638 36.8457 98.8779 37.2334 99.6635 38.0087C100.449 38.784 100.842 39.9152 100.842 41.4022V50.3503H97.6498V41.8882C97.6498 41.0608 97.4271 40.4562 96.9816 40.0743C96.5361 39.6866 95.9909 39.4928 95.3461 39.4928C94.5781 39.4928 93.9773 39.73 93.5435 40.2045C93.1155 40.6732 92.9016 41.2836 92.9016 42.0358V50.3503H89.78V41.758C89.78 41.0695 89.569 40.5198 89.1469 40.109C88.7307 39.6982 88.1855 39.4928 87.5114 39.4928C87.0542 39.4928 86.6379 39.6085 86.2628 39.84C85.8876 40.0656 85.5886 40.3868 85.3659 40.8033C85.1431 41.2142 85.0317 41.6944 85.0317 42.2441V50.3503H81.8486Z" fill="#838383"/>
<path d="M73.8927 50.6107C72.5385 50.6107 71.369 50.3329 70.3842 49.7775C69.4052 49.2162 68.652 48.4236 68.1244 47.3994C67.5968 46.3695 67.333 45.1573 67.333 43.7629C67.333 42.3916 67.5968 41.1881 68.1244 40.1524C68.6578 39.1109 69.4023 38.3009 70.3578 37.7223C71.3134 37.1379 72.4359 36.8457 73.7256 36.8457C74.558 36.8457 75.3435 36.9788 76.0821 37.2449C76.8266 37.5053 77.4832 37.9103 78.0518 38.46C78.6263 39.0097 79.0777 39.7098 79.4059 40.5603C79.7342 41.4051 79.8984 42.4119 79.8984 43.5806V44.544H68.8278V42.4263H76.8471C76.8413 41.8246 76.7094 41.2894 76.4515 40.8207C76.1935 40.3463 75.833 39.9731 75.3699 39.7011C74.9127 39.4292 74.3792 39.2932 73.7696 39.2932C73.1189 39.2932 72.5473 39.4494 72.0549 39.7619C71.5625 40.0685 71.1785 40.4735 70.903 40.9769C70.6334 41.4745 70.4956 42.0213 70.4897 42.6173V44.4659C70.4897 45.2412 70.6334 45.9066 70.9206 46.4621C71.2078 47.0118 71.6094 47.4341 72.1253 47.7292C72.6411 48.0185 73.2449 48.1632 73.9366 48.1632C74.3997 48.1632 74.8189 48.0995 75.194 47.9722C75.5692 47.8392 75.8946 47.6453 76.1701 47.3907C76.4456 47.1362 76.6537 46.8208 76.7944 46.4447L79.7665 46.7745C79.5789 47.5499 79.2213 48.2268 78.6937 48.8054C78.172 49.3783 77.5037 49.8238 76.6889 50.142C75.874 50.4545 74.942 50.6107 73.8927 50.6107Z" fill="#838383"/>
<path d="M58.0709 50.5847C57.0099 50.5847 56.0602 50.3157 55.222 49.7776C54.3837 49.2395 53.7213 48.4583 53.2347 47.4342C52.7482 46.4101 52.5049 45.1661 52.5049 43.7022C52.5049 42.221 52.7511 40.9712 53.2435 39.9529C53.7418 38.9287 54.413 38.1563 55.2571 37.6356C56.1013 37.109 57.0421 36.8458 58.0797 36.8458C58.8711 36.8458 59.5218 36.9789 60.0318 37.245C60.5418 37.5054 60.9463 37.8207 61.2452 38.191C61.5442 38.5555 61.7757 38.8998 61.9399 39.2238H62.0718V32.5757H65.2637V50.3504H62.1333V48.25H61.9399C61.7757 48.5741 61.5383 48.9183 61.2276 49.2829C60.917 49.6416 60.5066 49.9482 59.9966 50.2028C59.4866 50.4574 58.8447 50.5847 58.0709 50.5847ZM58.959 48.007C59.6332 48.007 60.2076 47.8277 60.6825 47.4689C61.1573 47.1044 61.5178 46.5981 61.764 45.9501C62.0102 45.3021 62.1333 44.547 62.1333 43.6849C62.1333 42.8227 62.0102 42.0735 61.764 41.437C61.5237 40.8005 61.1661 40.3058 60.6913 39.9529C60.2223 39.5999 59.6449 39.4235 58.959 39.4235C58.2497 39.4235 57.6576 39.6057 57.1828 39.9702C56.708 40.3348 56.3504 40.8381 56.1101 41.4804C55.8697 42.1226 55.7495 42.8575 55.7495 43.6849C55.7495 44.5181 55.8697 45.2616 56.1101 45.9154C56.3563 46.5634 56.7168 47.0755 57.1916 47.4516C57.6723 47.8219 58.2614 48.007 58.959 48.007Z" fill="#838383"/>
<path d="M43.4699 50.6194C42.614 50.6194 41.8431 50.4689 41.1573 50.168C40.4773 49.8614 39.938 49.4101 39.5393 48.8141C39.1466 48.2182 38.9502 47.4833 38.9502 46.6096C38.9502 45.8574 39.0909 45.2355 39.3723 44.7436C39.6536 44.2518 40.0376 43.8584 40.5242 43.5633C41.0107 43.2682 41.5588 43.0454 42.1685 42.895C42.784 42.7388 43.42 42.6259 44.0766 42.5565C44.868 42.4755 45.5099 42.4032 46.0023 42.3395C46.4947 42.2701 46.8523 42.166 47.075 42.0271C47.3036 41.8824 47.418 41.6597 47.418 41.3588V41.3067C47.418 40.6529 47.2216 40.1466 46.8288 39.7879C46.4361 39.4292 45.8704 39.2498 45.1317 39.2498C44.3521 39.2498 43.7336 39.4176 43.2764 39.7532C42.825 40.0888 42.5202 40.4851 42.3619 40.9422L39.3899 40.5256C39.6243 39.7156 40.0112 39.0386 40.5505 38.4947C41.0899 37.945 41.7493 37.5342 42.529 37.2623C43.3086 36.9846 44.1704 36.8457 45.1142 36.8457C45.7649 36.8457 46.4126 36.9209 47.0574 37.0714C47.7023 37.2218 48.2914 37.4706 48.8249 37.8178C49.3583 38.1591 49.7862 38.6249 50.1086 39.2151C50.4369 39.8053 50.6011 40.543 50.6011 41.4282V50.3503H47.5411V48.519H47.4355C47.2421 48.8893 46.9695 49.2365 46.6178 49.5605C46.2719 49.8787 45.8352 50.1362 45.3076 50.3329C44.7859 50.5239 44.1733 50.6194 43.4699 50.6194ZM44.2964 48.3107C44.9354 48.3107 45.4893 48.1863 45.9583 47.9375C46.4273 47.6829 46.7878 47.3474 47.0399 46.9308C47.2978 46.5142 47.4267 46.06 47.4267 45.5681V43.9972C47.3271 44.0782 47.1571 44.1535 46.9167 44.2229C46.6823 44.2923 46.4185 44.3531 46.1254 44.4052C45.8323 44.4572 45.5421 44.5035 45.2549 44.544C44.9676 44.5845 44.7185 44.6192 44.5074 44.6482C44.0326 44.7118 43.6076 44.816 43.2324 44.9606C42.8573 45.1053 42.5612 45.3078 42.3443 45.5681C42.1274 45.8227 42.019 46.1525 42.019 46.5576C42.019 47.1362 42.233 47.573 42.6609 47.8681C43.0888 48.1632 43.634 48.3107 44.2964 48.3107Z" fill="#838383"/>
<path d="M37.48 38.5728H34.1913C34.0975 38.0404 33.9246 37.5689 33.6725 37.1581C33.4205 36.7415 33.1068 36.3885 32.7317 36.0992C32.3565 35.8099 31.9286 35.5929 31.4479 35.4483C30.9731 35.2979 30.4601 35.2226 29.9091 35.2226C28.9301 35.2226 28.0625 35.4657 27.3063 35.9517C26.5501 36.4319 25.9581 37.1378 25.5301 38.0694C25.1022 38.9951 24.8882 40.1263 24.8882 41.4629C24.8882 42.8226 25.1022 43.9682 25.5301 44.8998C25.9639 45.8255 26.556 46.5257 27.3063 47.0001C28.0625 47.4688 28.9272 47.7031 29.9003 47.7031C30.4396 47.7031 30.9437 47.6337 31.4127 47.4948C31.8875 47.3502 32.3125 47.139 32.6877 46.8612C33.0687 46.5835 33.3882 46.2421 33.6462 45.8371C33.91 45.4321 34.0917 44.9692 34.1913 44.4485L37.48 44.4658C37.3569 45.3106 37.0901 46.1033 36.6798 46.8439C36.2753 47.5845 35.7448 48.2383 35.0882 48.8054C34.4317 49.3666 33.6637 49.8063 32.7844 50.1246C31.9051 50.437 30.9291 50.5932 29.8563 50.5932C28.2736 50.5932 26.8608 50.2316 25.6181 49.5084C24.3753 48.7851 23.3963 47.7407 22.6812 46.3752C21.966 45.0097 21.6084 43.3723 21.6084 41.4629C21.6084 39.5477 21.9689 37.9103 22.69 36.5505C23.411 35.185 24.3929 34.1407 25.6356 33.4174C26.8784 32.6941 28.2853 32.3325 29.8563 32.3325C30.8587 32.3325 31.7908 32.4714 32.6525 32.7491C33.5143 33.0268 34.2822 33.4348 34.9563 33.9729C35.6305 34.5052 36.1844 35.159 36.6182 35.9343C37.0579 36.7039 37.3451 37.5833 37.48 38.5728Z" fill="#838383"/>
</g>
</svg>
