<svg width="144" height="84" viewBox="0 0 144 84" fill="none" xmlns="http://www.w3.org/2000/svg">
<path opacity="0.5" d="M88.99 32.5877C88.99 32.3846 88.7738 32.2909 88.3261 32.3534C87.7395 32.4002 87.1528 32.369 86.5662 32.2909C85.0996 32.0253 84.8063 31.8066 83.8492 32.0722C83.1236 32.3377 82.5061 32.8376 82.1047 33.5093C81.9503 33.6811 81.7805 33.8217 81.5798 33.931C79.6964 34.8214 77.4425 34.7745 75.4356 35.4775C75.5591 34.7433 75.8678 34.056 76.3001 33.4624C76.686 32.8844 79.681 29.6198 80.2676 28.0577C80.6072 27.1361 81.3482 25.246 81.5798 24.59C81.7342 24.1682 81.8731 23.2466 82.3363 22.0126C82.5524 21.3721 82.8457 20.7629 83.2008 20.185C83.2008 20.185 83.4941 19.8101 83.4323 19.7476C83.386 19.6851 83.1699 19.8257 83.1699 19.8257C82.6913 20.2318 82.2436 20.6692 81.8423 21.1535C81.1321 22.0126 81.1167 22.4187 81.1167 22.4187C81.0395 22.2 81.0086 21.9657 81.0395 21.7314C81.0858 21.4815 81.1784 21.2316 81.3019 21.0129C81.3019 20.9191 81.0241 21.1066 81.0241 21.1066C80.4374 21.6221 79.9434 22.2313 79.5883 22.9342C78.2916 25.0117 76.825 26.9487 75.1731 28.745C73.8455 30.1509 72.4561 31.4942 70.974 32.7439C68.9054 30.4008 67.0992 27.839 65.5863 25.1054C62.7457 20.185 60.4146 14.9834 58.6393 9.56304C58.2533 8.36026 57.9291 7.14186 57.6821 5.89222C57.6821 5.65792 57.5277 5.89222 57.5277 5.89222C56.8639 7.26683 56.6323 8.79764 56.833 10.2972C56.2464 9.56304 55.7987 8.73515 55.5208 7.82917C55.4282 7.56362 55.3819 7.82917 55.3819 7.82917C55.1966 8.9226 55.2429 10.0317 55.5054 11.1095C55.2584 11.8124 55.1966 12.5622 55.3047 13.2963C55.3664 14.218 55.598 15.1239 55.9685 15.9674C55.6752 17.0453 55.7369 18.2012 56.1383 19.2478C56.5243 20.4349 57.0492 21.5596 57.7284 22.6062C57.7439 22.8092 57.7439 22.9967 57.7284 23.1997C57.6667 25.6834 59.3185 27.5735 60.4763 29.4011C61.7886 31.3068 62.6376 33.4937 62.9464 35.7899C62.9618 35.868 62.9773 35.9461 63.0236 36.0242C63.6565 36.8521 64.4284 37.5706 65.2929 38.1486L64.0734 39.695C63.3323 40.7572 62.4524 41.71 61.4489 42.5067C61.1556 42.741 60.8314 42.8972 60.4609 42.9909C60.4609 42.9909 60.816 43.4752 62.2363 43.5064C61.9429 43.6938 61.6187 43.8032 61.2791 43.8188C61.2791 43.8188 65.3238 46.2087 72.0701 42.9128C77.2418 40.3198 79.3105 37.0551 82.9692 35.6024C83.1236 35.5556 83.4169 35.4306 83.4941 35.415C84.6982 35.3212 85.8252 34.7589 86.6125 33.8373C86.9059 33.6499 87.2146 33.4937 87.5388 33.3843L87.7241 33.3062C88.851 32.9157 89.0208 32.697 88.99 32.5877ZM31.4687 56.6745H28.2268L29.3074 58.2365V61.0014C28.8443 61.1576 28.3812 61.22 27.8872 61.22C26.2971 61.22 24.8614 60.3141 24.1821 58.8613C23.8116 58.0959 23.6109 57.2681 23.6263 56.4089C23.6109 55.6591 23.7807 54.9094 24.1049 54.2221C24.3982 53.6129 24.8614 53.0974 25.448 52.7381C26.0346 52.3788 26.7139 52.207 27.3932 52.207C27.5938 52.207 27.81 52.207 28.0415 52.207L29.8941 54.144L31.4224 52.6444C30.8975 52.1602 30.28 51.7853 29.6008 51.551C28.8289 51.301 28.0261 51.1917 27.2233 51.2073C26.1581 51.1917 25.1084 51.426 24.1667 51.9102C23.2713 52.3476 22.5303 53.0349 22.0054 53.894C21.4959 54.7688 21.2489 55.7685 21.2644 56.7838C21.2489 57.7835 21.5114 58.7676 22.0362 59.6268C22.5611 60.4703 23.3021 61.1419 24.1975 61.5637C25.1701 62.0323 26.2353 62.2666 27.3005 62.251C28.304 62.2822 29.292 62.0636 30.1874 61.6262L31.4996 62.1729L31.4687 56.6745ZM39.0178 57.0025C39.7434 56.8151 40.4072 56.4402 40.9475 55.9091C41.3952 55.4717 41.6422 54.8625 41.6422 54.2221C41.6577 53.3629 41.1945 52.5819 40.4381 52.1914C39.3883 51.6603 38.2305 51.4104 37.0572 51.4729H33.9233L34.3247 52.7225V60.2984L33.9233 62.126H36.8411L36.4243 60.7202V57.4711L37.0727 57.4086C37.8909 59.3456 39.2648 60.9857 41.0093 62.126H42.831C41.951 61.0326 41.2409 60.1891 40.6697 59.4549C40.083 58.6895 39.5273 57.8616 39.0178 57.0025ZM36.4243 52.3007H36.7639C37.4895 52.2539 38.1996 52.4569 38.8017 52.8787C39.6353 53.5504 39.7743 54.7844 39.1104 55.6279C39.0024 55.7685 38.8789 55.8935 38.7245 55.9872C38.0452 56.4402 37.2425 56.6901 36.4243 56.7057V52.3007ZM48.6047 61.1419H46.7367V56.8775H48.2187L50.025 57.4867L50.5035 55.7373L49.3457 55.8622C48.9289 55.8622 48.5738 55.9559 48.2651 55.9716C47.9563 55.9872 47.6167 55.9716 47.1844 55.9716H46.675V52.3007H48.7128L50.5498 53.2692L51.0747 51.3791H44.1895L44.6063 52.6288V60.2047L44.1895 62.126H50.8432L51.4298 60.0485L48.6047 61.1419ZM57.9445 57.2524L61.1865 51.426H59.1487V52.9256L57.4505 56.3621L55.4899 52.7694V51.426H52.3715L55.7833 57.4867V60.5484L55.1349 62.126H58.6547L57.9445 60.5484V57.2524ZM75.0187 56.6745H71.7768L72.8575 58.2365V61.0014C72.3943 61.1576 71.9312 61.22 71.4372 61.22C69.8471 61.2357 68.3959 60.3141 67.7167 58.8613C67.3462 58.0959 67.1455 57.2681 67.1609 56.4089C67.1455 55.6591 67.3153 54.9094 67.6395 54.2221C67.9328 53.6129 68.3959 53.0974 68.9826 52.7381C69.5692 52.3788 70.2485 52.207 70.9277 52.207C71.1284 52.207 71.3446 52.207 71.5761 52.207L73.3823 54.1127L74.9107 52.6131C74.3858 52.1289 73.7683 51.754 73.1045 51.5197C72.348 51.2854 71.5452 51.1761 70.7579 51.1917C69.6927 51.1761 68.6429 51.4104 67.7012 51.8946C65.895 52.8006 64.7681 54.6907 64.8144 56.737C64.7681 58.7676 65.9104 60.6421 67.7167 61.5168C68.6893 61.9854 69.7545 62.2198 70.8351 62.2041C71.8231 62.2354 72.8112 62.0167 73.7065 61.5793L75.0342 62.126L75.0187 56.6745ZM82.5833 51.2854C81.5644 51.2698 80.5609 51.5197 79.6655 51.9883C78.8319 52.4413 78.1217 53.1286 77.6432 53.9565C76.686 55.7373 76.686 57.8773 77.6432 59.658C78.1217 60.4859 78.8164 61.1732 79.6655 61.6106C81.5026 62.5478 83.6794 62.5478 85.5164 61.6106C86.3655 61.1732 87.0602 60.4859 87.5388 59.658C88.5114 57.8929 88.5114 55.7373 87.5388 53.9565C87.0602 53.1286 86.3655 52.4413 85.5164 51.9883C84.6211 51.4885 83.6022 51.2229 82.5833 51.2229V51.2854ZM81.6879 52.3007H81.9966C82.7068 52.3007 83.4169 52.535 83.9881 52.9568C84.6211 53.4098 85.1151 54.019 85.4393 54.7219C85.7943 55.4873 85.9796 56.3308 85.9641 57.1743C85.9796 58.0491 85.7789 58.9238 85.3775 59.7049C84.9916 60.439 84.3277 61.0014 83.5404 61.2513H83.2162C82.4906 61.2513 81.7959 61.017 81.2093 60.5952C80.5764 60.1422 80.0669 59.5487 79.7273 58.8301C79.3722 58.0647 79.187 57.2212 79.2024 56.3777C79.187 55.4873 79.4031 54.6126 79.8045 53.8315C80.2059 53.113 80.8851 52.5507 81.6879 52.3007ZM95.7054 51.2073C94.6865 51.1917 93.683 51.426 92.7877 51.9102C91.954 52.3632 91.2439 53.0505 90.7653 53.8784C89.8082 55.6591 89.8082 57.7992 90.7653 59.5799C91.2439 60.4078 91.9386 61.0951 92.7877 61.5325C94.6247 62.4697 96.8015 62.4697 98.6386 61.5325C99.4877 61.0951 100.182 60.4078 100.661 59.5799C101.634 57.8148 101.634 55.6591 100.661 53.8784C100.182 53.0505 99.4877 52.3632 98.6386 51.9102C97.7277 51.4416 96.7243 51.1917 95.7054 51.2073ZM94.7791 52.2539H95.0879C95.798 52.2539 96.5082 52.4882 97.0794 52.9099C97.7123 53.3629 98.2063 53.9721 98.5305 54.6751C98.8856 55.4405 99.0708 56.284 99.0554 57.1275C99.0708 58.0022 98.8701 58.877 98.4688 59.658C98.0828 60.3922 97.419 60.9545 96.6317 61.2044H96.3075C95.5819 61.2044 94.8872 60.9857 94.3006 60.5484C93.6985 60.111 93.2199 59.5174 92.8803 58.8457C92.5252 58.0803 92.34 57.2368 92.3554 56.3933C92.34 55.5029 92.5561 54.6282 92.9575 53.8472C93.3434 53.113 94.0072 52.5507 94.7946 52.3007L94.7791 52.2539ZM105.416 53.5191C105.416 53.1286 105.586 52.7694 105.879 52.5194C106.219 52.2539 106.635 52.1133 107.068 52.1445C107.207 52.1289 107.345 52.1289 107.484 52.1445L108.966 53.7222L110.14 52.5819C109.723 52.1445 109.213 51.8165 108.658 51.6291C108.056 51.3948 107.407 51.2698 106.743 51.2854C106.141 51.2854 105.539 51.4104 104.984 51.6603C104.489 51.879 104.073 52.2383 103.779 52.6912C103.486 53.1286 103.332 53.6597 103.347 54.1908C103.332 54.6907 103.471 55.1905 103.748 55.6123C103.995 55.9872 104.32 56.2996 104.69 56.5339C105.061 56.7682 105.539 57.0494 106.157 57.3618C106.574 57.5648 106.975 57.7835 107.376 58.0335C107.67 58.2053 107.932 58.4396 108.148 58.7051C108.349 58.9863 108.442 59.3143 108.442 59.658C108.457 60.1422 108.256 60.5952 107.917 60.9076C107.546 61.2513 107.052 61.4231 106.558 61.4075H106.141L104.073 59.2206L102.853 60.3922C103.208 61.0014 103.764 61.4856 104.412 61.7668C105.153 62.126 105.972 62.2979 106.79 62.2979C107.469 62.3135 108.133 62.1729 108.75 61.8761C109.291 61.6262 109.754 61.2357 110.093 60.7358C110.418 60.236 110.587 59.658 110.572 59.0488C110.587 58.5021 110.433 57.9866 110.14 57.5336C109.846 57.1275 109.491 56.7682 109.059 56.5027C108.565 56.159 108.056 55.8622 107.531 55.581C107.052 55.3467 106.651 55.128 106.373 54.9562C106.11 54.8 105.863 54.597 105.678 54.347C105.493 54.1283 105.385 53.8315 105.385 53.5348L105.416 53.5191ZM116.901 61.1576H114.987V56.8775H116.485L118.291 57.4867L118.769 55.7373L117.612 55.8622C117.195 55.8622 116.84 55.9559 116.531 55.9716C116.222 55.9872 115.883 55.9716 115.45 55.9716H114.925V52.3007H116.948L118.785 53.2692L119.31 51.3791H112.394L112.81 52.6288V60.2047L112.394 62.126H119.047L119.634 60.0485L116.901 61.1576ZM121.301 52.0352H121.533C121.656 52.0508 121.764 51.9571 121.78 51.8321V51.8165C121.78 51.6915 121.672 51.5822 121.548 51.5822H121.533H121.301V52.0352ZM121.301 52.8631H121.116V51.426H121.486C121.78 51.426 121.95 51.5822 121.95 51.8165C121.95 52.0039 121.826 52.1602 121.641 52.1914L122.058 52.8631H121.826L121.44 52.207H121.286V52.8631H121.301ZM121.502 53.2067C122.104 53.2067 122.583 52.7225 122.583 52.1133C122.583 51.5041 122.104 51.0199 121.502 51.0199C120.9 51.0199 120.421 51.5041 120.421 52.1133C120.421 52.7225 120.915 53.2067 121.502 53.2067ZM121.502 50.8949C122.181 50.8949 122.737 51.4572 122.737 52.1445C122.737 52.8318 122.181 53.3942 121.502 53.3942C120.823 53.3942 120.267 52.8318 120.267 52.1445C120.282 51.4572 120.823 50.8949 121.502 50.8949Z" fill="#838383"/>
</svg>
