<svg width="122" height="84" viewBox="0 0 122 84" fill="none" xmlns="http://www.w3.org/2000/svg">
<g opacity="0.5">
<path d="M26.0768 33.7611L28.8298 45.8636C28.9097 46.0834 29.2095 46.0104 29.4171 46.0052L31.8096 33.8463L37.3122 33.8628L39.6083 45.6829C39.6587 45.9461 39.7977 46.0399 40.0644 46.0173L42.8018 33.914C42.8192 33.8506 42.9825 33.7603 43.0172 33.7603H47.2306L43.1528 51.1838L37.1081 51.1377L34.8076 40.0595C34.779 39.7998 34.4879 39.7633 34.3272 39.9275L31.9451 51.1012C31.8443 51.2324 31.3926 51.2176 31.2076 51.2255C29.808 51.2854 27.5953 51.3636 26.2453 51.2281C25.9951 51.2029 25.8405 51.2124 25.7744 50.917L21.7921 34.0409C21.7383 33.9496 21.8443 33.7611 21.9068 33.7611H26.0768Z" fill="#838383"/>
<path d="M95.8792 35.2381V33.7612H100.223V51.2229L96.8435 51.2142L96.2754 49.5098C95.6829 49.4846 95.5422 49.892 95.1782 50.1309C90.5999 53.1446 84.9096 50.1474 83.5848 45.1426C81.8065 38.4203 86.8825 31.6085 94.0262 34.0062L95.8784 35.2381H95.8792ZM89.3133 45.974C89.9466 46.503 90.9239 46.9131 91.7536 46.9643C97.7575 47.3344 97.1068 36.1346 90.8206 37.9555C87.4994 38.9172 86.7783 43.8577 89.3133 45.974Z" fill="#838383"/>
<path d="M72.251 26.7241V39.7553L73.0329 39.7118L78.5494 33.7609H83.7184L77.0439 41.2617L83.7184 51.2227H78.8969L74.1162 44.4465C73.9659 44.41 72.7428 45.8365 72.5143 46.0597C72.4126 46.1588 72.2519 46.1701 72.2519 46.184V51.0923L72.1216 51.2227H68.386C68.2262 51.2227 67.9925 51.227 67.9082 51.0923V26.7241H72.2519H72.251Z" fill="#838383"/>
<path d="M49.0981 38.7994C49.0095 38.7351 49.0043 38.723 49.0034 38.6213C48.9948 37.3495 50.0816 35.6233 51.0606 34.8536C53.3202 33.0779 57.9463 32.965 60.4074 34.3532C64.368 36.5885 63.051 41.5368 63.3038 45.2698C63.3933 46.5973 63.7356 47.896 65.3879 47.6597V51.2216C63.5288 51.2259 61.8365 51.1556 60.6246 49.5996C60.4691 49.4007 60.3831 48.9707 60.1346 49.0463C60.0903 49.0602 59.682 49.6101 59.5257 49.7465C56.2879 52.5838 48.5891 51.6603 48.1877 46.5721C47.7429 40.9331 54.9239 40.093 59.0461 39.9279C59.0348 38.4832 58.2842 37.4364 56.8065 37.2592C55.42 37.0924 53.8945 37.3521 53.3558 38.7986H49.099L49.0981 38.7994ZM58.7846 43.4038C57.6761 43.5323 56.5589 43.634 55.4669 43.8651C54.2576 44.1214 52.1188 44.6322 52.4628 46.2949C52.7321 47.5946 54.6207 47.764 55.6624 47.5355C57.6188 47.1055 58.7985 45.361 58.7846 43.4038Z" fill="#838383"/>
</g>
</svg>
