<svg width="153" height="84" viewBox="0 0 153 84" fill="none" xmlns="http://www.w3.org/2000/svg">
<path opacity="0.5" fill-rule="evenodd" clip-rule="evenodd" d="M64.4561 29.112C61.6697 31.7405 59.2777 35.4632 58.4046 38.5298C58.0102 39.9147 57.8718 42.4633 58.1105 43.9429C58.4659 46.146 59.4213 48.4037 60.9799 50.7228C61.9755 52.2043 63.9605 54.4971 64.9442 55.302L65.617 55.8524L66.03 55.5583C66.6581 55.1112 68.6334 52.9777 69.5625 51.7432C74.4306 45.275 74.5503 39.2918 69.9426 32.7275C68.9832 31.3607 65.9749 28.1467 65.6556 28.1475C65.558 28.1477 65.0182 28.5818 64.4561 29.112ZM50.2349 28.4915C48.9007 28.9267 47.697 30.0263 47.0594 31.3922L46.6555 32.2574V41.9904V51.7234L47.0699 52.6206C47.5615 53.6849 48.6997 54.8296 49.7137 55.2793C50.784 55.7542 52.6115 55.8069 53.7209 55.3953C54.838 54.9806 55.797 54.0215 56.2566 52.8592C56.5633 52.0839 56.5964 51.7447 56.6465 48.8756L56.7013 45.7394H54.9702H53.2392L53.1916 48.4199C53.1453 51.036 53.136 51.1071 52.8037 51.3759C52.3353 51.755 51.4672 51.7406 51.1118 51.3479C50.8488 51.0572 50.8354 50.6627 50.7979 42.0592L50.7586 33.0739L51.0912 32.6872C51.5203 32.1886 52.3789 32.1491 52.8373 32.6072C53.1243 32.8939 53.1472 33.0863 53.1916 35.5776L53.2392 38.2414H54.9702H56.7013L56.6465 35.1052C56.5848 31.5666 56.4401 30.9284 55.434 29.7529C54.6082 28.7881 53.6836 28.392 52.1348 28.3392C51.3141 28.3114 50.6158 28.3674 50.2349 28.4915ZM111.482 28.5208C110.077 29.0304 109.108 29.9259 108.457 31.3135L108.082 32.1132V41.9904V51.8676L108.462 52.678C109.297 54.4605 110.927 55.569 112.854 55.6663C115.19 55.7843 116.976 54.7317 117.944 52.6673L118.319 51.8676V41.9904V32.1132L117.936 31.2949C117.42 30.1946 116.515 29.2465 115.528 28.7733C114.493 28.2768 112.497 28.1522 111.482 28.5208ZM21.8134 40.22L21.8544 51.8676L22.2278 52.6607C23.2014 54.7279 24.9825 55.7925 27.2433 55.6586C29.7352 55.5109 31.4332 53.9317 31.8714 51.3543C31.9789 50.7226 32.0162 46.9449 31.9885 39.5391L31.9479 28.6526L29.9652 28.6125L27.9826 28.5724V39.8235C27.9826 50.8823 27.9776 51.0794 27.6942 51.3629C27.3383 51.7188 26.5112 51.747 26.2338 51.413C26.0713 51.217 26.0231 49.1667 25.9639 39.9136L25.8918 28.6526L23.8321 28.6125L21.7725 28.5725L21.8134 40.22ZM33.9945 28.6726C33.9394 28.7277 33.8945 34.7314 33.8945 42.0145V55.2561H35.6969H37.4993L37.5125 47.65L37.5258 40.0438L39.4316 47.6139L41.3374 55.184L43.0231 55.2247L44.7089 55.2652V41.9183V28.5714L43.0146 28.6119L41.3204 28.6526L41.2483 36.1941L41.1762 43.7356L40.104 38.8617C39.5142 36.181 38.7664 32.7873 38.4423 31.3201L37.853 28.6526L35.9739 28.6125C34.9403 28.5906 34.0496 28.6175 33.9945 28.6726ZM74.8452 41.9151V55.2561H76.6476H78.45L78.4697 45.7034C78.4827 39.4901 78.531 36.6547 78.6082 37.5925C78.7914 39.8219 79.1506 43.472 79.5375 47.0371C79.731 48.8215 79.992 51.2548 80.1171 52.4444C80.4494 55.5996 80.2387 55.2561 81.8413 55.2561C82.8887 55.2561 83.2083 55.2108 83.2083 55.0626C83.2083 54.9562 83.3694 53.5774 83.5661 51.9985C84.3769 45.4928 84.9241 40.7934 85.0921 38.8902C85.1903 37.78 85.3154 36.7454 85.3704 36.5914C85.4253 36.4372 85.4642 40.5737 85.4569 45.7835L85.4433 55.256H87.426L89.4086 55.2561V41.9183V28.5805H86.7411C85.2739 28.5805 84.0735 28.6007 84.0735 28.6253C84.0735 28.65 83.7554 31.2293 83.3665 34.357C82.9778 37.4848 82.5791 41.0671 82.4806 42.318C82.3821 43.5689 82.2773 44.5681 82.2477 44.5386C82.2182 44.509 82.061 43.1286 81.8985 41.4712C81.7358 39.8138 81.2968 36.2515 80.9225 33.5551L80.2422 28.6526L77.5436 28.6133L74.8452 28.5741V41.9151ZM91.5715 41.9183V55.2561H93.3739H95.1763L95.2006 46.0638C95.214 41.0082 95.2487 37.1311 95.278 37.4483C95.7114 42.1464 95.9776 44.8062 96.4672 49.3259C96.7881 52.2898 97.0508 54.8388 97.0508 54.9907C97.0508 55.2463 97.1537 55.2635 98.4525 55.2253L99.8541 55.184L100.03 53.8142C100.802 47.7905 101.708 39.9228 101.997 36.7274C102.026 36.4101 102.06 40.4494 102.073 45.7034L102.098 55.2561H104.116H106.135V41.9183V28.5805H103.479H100.823L100.74 28.977C100.54 29.9405 99.3517 39.9694 99.198 41.9904C99.1044 43.2196 98.9858 44.2738 98.934 44.3329C98.8824 44.3921 98.7285 43.1917 98.5921 41.6654C98.4557 40.1391 98.021 36.5868 97.6262 33.7714C97.2312 30.956 96.9078 28.6363 96.9074 28.6165C96.9069 28.5968 95.7062 28.5805 94.2391 28.5805H91.5715V41.9183ZM120.366 28.6726C120.311 28.7277 120.266 34.7314 120.266 42.0145V55.2561H122.067H123.868L123.905 47.6782L123.943 40.1002L125.828 47.6422L127.712 55.184L129.469 55.2245L131.226 55.2651L131.189 41.9588L131.152 28.6526H129.422H127.692L127.62 36.1804L127.548 43.7082L126.564 39.2085C126.023 36.7336 125.277 33.346 124.906 31.6806L124.231 28.6526L122.349 28.6125C121.313 28.5906 120.421 28.6175 120.366 28.6726ZM64.4616 30.8472C63.8898 31.4594 63.1223 32.3498 62.7561 32.8258C62.0518 33.741 60.7143 35.8916 60.7143 36.1089C60.7143 36.1796 60.9251 36.0791 61.1829 35.8857C62.5207 34.8817 63.8485 34.4694 65.7123 34.4795C67.2518 34.4879 68.5912 34.8653 69.6773 35.5969C70.7327 36.3078 70.7158 36.3013 70.5097 35.9157C70.0552 35.0647 69.1248 33.6251 68.5181 32.8342C67.7643 31.8515 65.7793 29.734 65.6119 29.734C65.5509 29.734 65.0333 30.2349 64.4616 30.8472ZM112.949 32.2988C112.177 32.4195 112.191 32.2362 112.191 41.9904C112.191 52.0458 112.152 51.6513 113.137 51.6513C113.441 51.6513 113.745 51.5397 113.921 51.3629C114.204 51.0806 114.21 50.8823 114.21 42.0225C114.21 34.2934 114.179 32.9262 113.998 32.6679C113.765 32.335 113.443 32.2216 112.949 32.2988ZM64.0307 35.8338C61.6045 36.5249 59.8112 38.5055 59.3906 40.9587C58.6789 45.109 62.4592 48.9343 66.5754 48.2292C69.8929 47.6611 72.1564 44.812 71.9247 41.4965C71.7551 39.0722 70.1834 36.935 67.9239 36.0564C66.9502 35.6778 64.975 35.5649 64.0307 35.8338ZM64.7133 37.8215C63.3754 38.1367 62.1287 39.2068 61.6553 40.4464C61.2732 41.4471 61.3966 43.167 61.914 44.0499C62.7833 45.5332 64.183 46.2565 65.9599 46.1404C67.1548 46.0624 67.8939 45.7308 68.6739 44.9226C69.4942 44.0724 69.8668 43.1219 69.8513 41.9183C69.826 39.9293 68.6171 38.3867 66.6904 37.8849C65.7561 37.6415 65.5107 37.6336 64.7133 37.8215ZM67.2751 42.3494C67.0154 42.6962 66.9451 42.7187 66.5701 42.5748C66.0344 42.3692 65.9667 42.4509 66.2784 42.9268C66.5173 43.2913 66.5175 43.3334 66.2817 43.7324C66.018 44.1788 66.0989 44.2369 66.6775 44.017C66.9836 43.9007 67.0741 43.9374 67.2973 44.2694L67.5585 44.658L67.6331 44.1655C67.6947 43.7589 67.7956 43.6431 68.2123 43.5008L68.717 43.3285L68.1862 43.1036C67.7551 42.9209 67.6469 42.7928 67.6094 42.4214L67.5634 41.9643L67.2751 42.3494ZM60.7143 47.8678C60.7143 48.36 62.9731 51.5099 64.4616 53.0932L65.6137 54.3189L66.7203 53.1653C67.329 52.5309 68.1685 51.5576 68.5856 51.0024C69.3576 49.9752 70.6802 47.8709 70.6024 47.7931C70.5789 47.7696 70.2271 47.9742 69.8206 48.2478C68.4224 49.1888 67.6386 49.4049 65.6168 49.4075C63.9906 49.4094 63.7273 49.3726 62.9245 49.0312C62.4351 48.823 61.7375 48.4482 61.3744 48.1985C61.0113 47.9486 60.7143 47.7999 60.7143 47.8678Z" fill="#838383"/>
</svg>
