<svg width="142" height="84" viewBox="0 0 142 84" fill="none" xmlns="http://www.w3.org/2000/svg">
<path opacity="0.5" fill-rule="evenodd" clip-rule="evenodd" d="M21.4814 25.6616V29.8171H24.757H28.0326L27.9628 29.4862C27.6286 27.9013 26.289 21.6711 26.2668 21.5988C26.2404 21.5124 26.0792 21.5062 23.86 21.5062H21.4814V25.6616ZM29.5829 21.5194C29.5841 21.5267 29.9844 23.3907 30.4724 25.6616L31.3598 29.7906L34.7051 29.8042C36.9106 29.8132 38.0504 29.7998 38.0504 29.7649C38.0504 29.7358 37.6573 27.8774 37.1769 25.6352C36.6965 23.393 36.3035 21.5466 36.3035 21.5323C36.3035 21.5179 34.7908 21.5062 32.9421 21.5062C31.0933 21.5062 29.5816 21.5121 29.5829 21.5194ZM39.6496 21.6249C39.6626 21.6906 40.0626 23.5608 40.5386 25.7807L41.4039 29.8171H44.7603H48.1166L48.0772 29.6451C48.0556 29.5504 47.6543 27.6864 47.1854 25.5028L46.333 21.5326L42.9794 21.519L39.626 21.5054L39.6496 21.6249ZM49.6963 21.5858C49.6963 21.6471 51.2886 29.154 51.4171 29.698L51.4452 29.8171H54.7962H58.1473L57.2581 25.6749C56.7691 23.3966 56.3684 21.5267 56.3676 21.5194C56.3668 21.5121 54.8655 21.5062 53.0312 21.5062C50.0985 21.5062 49.6963 21.5157 49.6963 21.5858ZM59.7146 21.605C59.7289 21.6594 60.1307 23.5293 60.6075 25.7603L61.4745 29.8166L64.8289 29.8168L68.1832 29.8171L68.1598 29.698C68.147 29.6325 67.746 27.7625 67.2689 25.5425L66.4013 21.5062H63.0451C59.794 21.5062 59.6896 21.5093 59.7146 21.605ZM69.759 21.5584C69.759 21.5875 70.152 23.4459 70.6324 25.6881C71.1128 27.9303 71.5058 29.7767 71.5058 29.791C71.5058 29.8053 73.019 29.8171 74.8683 29.8171H78.2307L78.197 29.6827C78.1785 29.6089 77.7769 27.7449 77.3048 25.5405L76.4463 21.5326L73.1027 21.519C70.8982 21.51 69.759 21.5234 69.759 21.5584ZM79.7847 21.5988C79.8001 21.6498 80.1956 23.478 80.6636 25.6616C81.1315 27.8452 81.5271 29.6735 81.5426 29.7245C81.5691 29.8114 81.7755 29.8171 84.9022 29.8171C87.4238 29.8171 88.2336 29.802 88.2336 29.7547C88.2336 29.7069 87.3599 25.6002 86.5378 21.7841L86.4779 21.5062H83.1173C79.9413 21.5062 79.7582 21.5112 79.7847 21.5988ZM89.8326 21.5988C89.8454 21.6498 90.2471 23.5197 90.7252 25.7543L91.5944 29.8171H93.99H96.3857V25.6616V21.5062H93.0975C89.9923 21.5062 89.8106 21.5113 89.8326 21.5988ZM114.113 32.8381C111.855 33.17 110.48 34.3995 110.06 36.4619C109.972 36.8986 109.964 37.2834 109.964 41.2248C109.964 44.4504 109.981 45.6306 110.032 45.989C110.357 48.2473 111.356 49.4819 113.245 49.9601C113.508 50.0265 113.889 50.0959 114.093 50.1145C114.297 50.1329 114.565 50.1607 114.688 50.176L114.913 50.2039V48.6787V47.1535L114.694 47.0477C114.283 46.8492 114.026 46.3805 113.907 45.609C113.869 45.3687 113.856 43.8684 113.866 41.1708C113.882 37.1247 113.883 37.0933 113.999 36.7495C114.138 36.3388 114.398 36.0149 114.697 35.8803L114.913 35.7828V34.2821V32.7815L114.662 32.788C114.524 32.7915 114.277 32.8141 114.113 32.8381ZM115.496 34.2902C115.496 35.6133 115.506 35.7989 115.577 35.7989C115.729 35.7989 116.067 36.0068 116.224 36.1974C116.31 36.3017 116.426 36.5347 116.481 36.715C116.575 37.0253 116.581 37.2779 116.581 41.4365C116.581 45.8218 116.581 45.8309 116.464 46.202C116.319 46.6606 116.062 46.978 115.733 47.1037L115.496 47.1945V48.6996V50.2047L115.932 50.1709C118.64 49.9613 119.939 48.8408 120.403 46.3157C120.48 45.8936 120.494 45.2769 120.512 41.5953C120.534 37.0761 120.52 36.743 120.28 35.9153C119.773 34.1664 118.446 33.1197 116.378 32.8379C116.151 32.8069 115.859 32.7815 115.73 32.7815H115.496V34.2902ZM26.6692 41.463V49.7739H28.5095H30.3499L30.3336 49.2049C30.3247 48.8918 30.2598 46.5157 30.1894 43.9245L30.0616 39.2132L29.448 36.3017C29.1106 34.7004 28.8211 33.3367 28.8048 33.2712C28.7753 33.1526 28.77 33.1521 27.7222 33.1521H26.6692V41.463ZM29.261 33.2182C29.2598 33.2546 30.04 36.9944 30.9946 41.5287L32.7303 49.773L34.1661 49.7734L35.6019 49.7739L35.4318 48.9666C35.3382 48.5226 34.5508 44.7827 33.682 40.6557L32.1023 33.1521H30.6827C29.5833 33.1521 29.2625 33.167 29.261 33.2182ZM36.2988 33.1653C36.2963 33.1725 35.8717 35.162 35.3553 37.5862L34.4164 41.9938L35.0623 45.0501C35.4176 46.7311 35.737 48.2453 35.7723 48.415C35.8075 48.5847 35.8449 48.715 35.8554 48.7045C35.866 48.694 36.4367 46.019 37.1238 42.7601C37.8109 39.5012 38.3839 36.8241 38.397 36.8109C38.429 36.779 38.4395 36.3846 38.219 43.4878L38.0239 49.7739H39.8899H41.7559V41.463V33.1521H39.0297C37.5303 33.1521 36.3014 33.158 36.2988 33.1653ZM46.4949 33.2182C46.4827 33.2546 45.6728 36.9529 44.695 41.4365C43.7172 45.9202 42.9044 49.6304 42.8888 49.6813C42.8621 49.7684 42.9783 49.7739 44.8216 49.7739H46.7828L46.811 49.6548C46.8342 49.5574 47.2612 46.6247 47.2612 46.5633C47.2612 46.5531 47.8687 46.5448 48.6111 46.5448C49.4736 46.5448 49.9609 46.5258 49.9609 46.492C49.9609 46.4189 49.5935 43.8994 49.5614 43.7525C49.5357 43.6345 49.5268 43.6334 48.6077 43.6334H47.6799L47.7113 43.4613C47.7285 43.3667 47.9425 41.9709 48.1868 40.3595L48.6309 37.4296L48.3169 35.3041C48.1442 34.135 48.0028 33.1725 48.0026 33.1653C48.0025 33.158 47.6681 33.1521 47.2596 33.1521C46.7123 33.1521 46.511 33.1695 46.4949 33.2182ZM48.4812 33.2976C48.4825 33.3777 49.0256 37.1117 49.6881 41.5953L50.8927 49.7475L52.8678 49.7613C54.4405 49.7724 54.8378 49.7616 54.8179 49.7084C54.8042 49.6716 53.9874 45.9315 53.0029 41.3968L51.2127 33.1521H49.8458H48.4787L48.4812 33.2976ZM53.3488 34.8195V36.487H58.4042H63.4596V34.8195V33.1521H58.4042H53.3488V34.8195ZM65.6041 33.2182C65.5917 33.2546 64.7816 36.9529 63.8038 41.4365C62.8261 45.9202 62.0135 49.6304 61.9982 49.6813C61.9719 49.7684 62.0883 49.7739 63.9315 49.7739H65.8926L65.9185 49.6548C65.9426 49.544 66.3711 46.6225 66.3711 46.569C66.3711 46.5557 66.9785 46.5448 67.7209 46.5448C68.5306 46.5448 69.0708 46.5249 69.0708 46.4949C69.0708 46.4238 68.7056 43.954 68.6692 43.7789L68.6389 43.6334H67.7143H66.7897L66.8203 43.4613C66.8371 43.3667 67.0508 41.9723 67.2951 40.3626L67.7392 37.4359L67.4257 35.308C67.2532 34.1376 67.1122 33.1737 67.1122 33.166C67.1122 33.1584 66.7779 33.1521 66.3694 33.1521C65.8225 33.1521 65.6207 33.1695 65.6041 33.2182ZM67.5906 33.2976C67.5917 33.3777 68.1344 37.1117 68.7965 41.5953L70.0004 49.7475L71.9658 49.7613C73.8199 49.7744 73.93 49.7699 73.9092 49.6819C73.8154 49.286 70.3413 33.2375 70.3413 33.2002C70.3413 33.1725 69.7558 33.1521 68.9649 33.1521H67.5886L67.5906 33.2976ZM74.9467 41.463V49.7739H76.9053H78.8639V41.463V33.1521H76.9053H74.9467V41.463ZM79.3933 34.6521V36.1618L79.6977 36.195C80.7778 36.3128 81.1621 36.5888 81.3241 37.3632C81.4268 37.8539 81.4489 45.08 81.3492 45.5391C81.1754 46.3389 80.7072 46.714 79.7854 46.7919L79.3933 46.825V48.2995V49.7739L80.3329 49.7729C81.7604 49.7713 82.5031 49.6307 83.3349 49.2048C84.2595 48.7312 84.8523 47.9711 85.1517 46.8751L85.2926 46.3596L85.3099 41.9659C85.331 36.6241 85.3094 36.3176 84.8438 35.3489C84.1486 33.9026 82.8601 33.3134 80.0947 33.177L79.3933 33.1425V34.6521ZM86.9102 41.463V49.7739H88.8423H90.7745V41.463V33.1521H88.8423H86.9102V41.463ZM91.6215 34.8195V36.487H94.0036H96.3857V34.8195V33.1521H94.0036H91.6215V34.8195ZM97.815 41.463V49.7739H99.7471H101.679V41.463V33.1521H99.7471H97.815V41.463ZM102.262 34.6607V36.1694H102.603C103.551 36.1694 104.104 36.4912 104.311 37.1622C104.458 37.6386 104.443 38.7222 104.284 39.2307C104.047 39.9826 103.645 40.2455 102.728 40.2455H102.262V41.7203V43.1952L102.737 43.2223C103.798 43.2828 104.183 43.7425 104.324 45.1188C104.354 45.4143 104.38 46.3266 104.381 47.146C104.382 48.6161 104.414 49.108 104.534 49.5489L104.595 49.7739H106.737C108.822 49.7739 108.879 49.7712 108.879 49.6712C108.879 49.6146 108.855 49.5539 108.826 49.5361C108.717 49.4686 108.507 49.0408 108.46 48.7906C108.389 48.4109 108.305 47.1475 108.242 45.4861C108.211 44.6855 108.163 43.8425 108.136 43.6129C108.081 43.1564 107.913 42.7345 107.66 42.4143C107.453 42.1531 106.947 41.8152 106.59 41.6992C106.437 41.6495 106.294 41.5936 106.274 41.5751C106.253 41.5565 106.396 41.4587 106.591 41.3576C107.276 41.0035 107.826 40.3136 108.077 39.4937C108.403 38.4291 108.332 36.5359 107.926 35.4651C107.757 35.0166 107.326 34.4047 106.982 34.1225C106.156 33.445 104.957 33.1538 102.989 33.1525L102.262 33.1521V34.6607ZM56.4191 43.4216V49.7739H58.3777H60.3364V43.4216V37.0693H58.3777H56.4191V43.4216ZM91.6215 41.2248V42.8923H93.7918H95.9622V41.2248V39.5573H93.7918H91.6215V41.2248ZM91.6215 48.1329V49.7739H94.0036H96.3857V48.1329V46.4919H94.0036H91.6215V48.1329ZM26.6692 56.9717V62.4785H27.8879H29.1066L29.0763 61.6977C29.0596 61.2683 29.011 59.6782 28.9682 58.1643L28.8904 55.4116L28.4772 53.453L28.064 51.4943L27.3666 51.4796L26.6692 51.4648V56.9717ZM28.3736 51.587C28.3862 51.6525 28.9067 54.1299 29.5302 57.0923L30.664 62.4785H31.6045C32.1218 62.4785 32.5456 62.4607 32.5463 62.4388C32.547 62.417 32.0305 59.9396 31.3986 56.9335L30.2497 51.4679H29.3002H28.3508L28.3736 51.587ZM33.0007 51.5605C32.9344 51.7801 31.7913 57.2215 31.7912 57.3173C31.7912 57.4434 32.6385 61.5099 32.6935 61.6475C32.7167 61.7055 33.0529 60.2163 33.5515 57.847C34.0024 55.7043 34.3794 54.0177 34.3893 54.099C34.4048 54.2256 34.2149 61.1998 34.1702 62.1477L34.1546 62.4785H35.3879H36.6211V56.9732V51.4679H34.8248C33.1601 51.4679 33.0265 51.4746 33.0007 51.5605ZM39.7708 51.587C39.6737 51.9942 37.4151 62.3893 37.4151 62.4293C37.4151 62.4583 37.944 62.4785 38.7031 62.4785H39.9911L40.1456 61.4066L40.3001 60.3346L41.1868 60.3201C41.8442 60.3094 42.0733 60.2888 42.0727 60.2407C42.0723 60.205 42.0127 59.7828 41.9404 59.3024C41.868 58.822 41.8088 58.423 41.8088 58.4157C41.8088 58.4084 41.5349 58.4025 41.2001 58.4025C40.8652 58.4025 40.5913 58.3834 40.5913 58.3602C40.5913 58.3369 40.7223 57.455 40.8824 56.4005C41.0426 55.3459 41.1739 54.4061 41.1741 54.3121C41.1744 54.218 41.0867 53.5397 40.9791 52.8045L40.7836 51.4679H40.2914C39.8248 51.4679 39.7978 51.4741 39.7708 51.587ZM41.0894 51.6134C41.106 51.6935 41.4657 54.1173 41.8889 56.9997C42.312 59.882 42.67 62.2939 42.6844 62.3594L42.7107 62.4785H44.0102C45.2229 62.4785 45.3079 62.4723 45.2825 62.3859C45.2454 62.26 42.9205 51.5481 42.9205 51.5034C42.9205 51.4839 42.5017 51.4679 41.9899 51.4679H41.0593L41.0894 51.6134ZM45.9908 56.9732V62.4785H47.2877H48.5846V56.9732V51.4679H47.2877H45.9908V56.9732ZM48.9552 52.4676V53.4673L49.2595 53.5036C49.7298 53.5597 49.9851 53.7049 50.1298 53.9987C50.2519 54.2465 50.2521 54.2519 50.2678 56.8673C50.2784 58.6542 50.2648 59.5622 50.2249 59.7221C50.1077 60.1917 49.8194 60.4158 49.2331 60.4932L48.9552 60.5299V61.5123V62.4947L49.7095 62.4613C50.1244 62.4429 50.6216 62.3935 50.8144 62.3515C51.5724 62.1864 52.2593 61.6841 52.5588 61.0757C52.8609 60.4619 52.8816 60.1676 52.8595 56.7973C52.842 54.1313 52.8288 53.7327 52.7485 53.453C52.3831 52.1789 51.5837 51.6585 49.7808 51.521C49.3995 51.4919 49.0578 51.4681 49.0213 51.468C48.9707 51.4679 48.9552 51.703 48.9552 52.4676ZM54.037 56.9732V62.4785H55.3339H56.6309V56.9732V51.4679H55.3339H54.037V56.9732ZM57.0014 52.4653V53.4794L57.2793 53.4797C58.1503 53.4806 58.4732 53.8943 58.4186 54.9391C58.3729 55.8133 58.1265 56.1093 57.3989 56.1644L57.0014 56.1945V57.1601V58.1258L57.3703 58.1467C57.6344 58.1616 57.7801 58.1981 57.8831 58.275C58.3009 58.5869 58.3734 58.9106 58.4093 60.6258C58.4249 61.3682 58.4622 62.0888 58.4924 62.2271L58.5471 62.4785H59.9711C60.9051 62.4785 61.3951 62.4599 61.3951 62.4245C61.3951 62.3947 61.3367 62.2816 61.2653 62.173C61.1005 61.9224 61.0469 61.4885 60.9729 59.8053C60.9113 58.4061 60.8898 58.1987 60.7778 57.926C60.6372 57.5836 60.1663 57.1912 59.7675 57.0841C59.6623 57.0558 59.6896 57.0245 60.0021 56.814C60.4056 56.5424 60.6639 56.2147 60.824 55.7715C60.978 55.3455 61.0186 54.1059 60.8974 53.5324C60.7347 52.7618 60.3453 52.1915 59.767 51.877C59.3215 51.6346 58.7643 51.5214 57.8352 51.4844L57.0014 51.4513V52.4653ZM62.4009 56.9732V62.4785H63.6978H64.9947V56.9732V51.4679H63.6978H62.4009V56.9732ZM66.6357 56.9732V62.4785H67.9327H69.2296V56.9732V51.4679H67.9327H66.6357V56.9732ZM69.6002 52.4651V53.4673L69.8866 53.503C70.2596 53.5496 70.6059 53.7286 70.725 53.9362C70.8941 54.2312 70.9305 54.8977 70.9102 57.3228C70.8889 59.8554 70.883 59.9083 70.5846 60.1971C70.4317 60.3451 69.9499 60.5199 69.6949 60.5199C69.6072 60.5199 69.6002 60.5938 69.6002 61.5073V62.4947L70.3545 62.4628C72.1463 62.387 73.0321 61.8228 73.3576 60.5502C73.4588 60.1548 73.4645 59.9684 73.4645 57.0753C73.4645 53.7429 73.4478 53.5105 73.1673 52.9139C73.0817 52.732 72.8989 52.4846 72.7205 52.3092C72.2117 51.809 71.4756 51.5768 70.1427 51.4959L69.6002 51.463V52.4651Z" fill="#838383"/>
</svg>
