<svg width="249" height="84" viewBox="0 0 249 84" fill="none" xmlns="http://www.w3.org/2000/svg">
<g opacity="0.5">
<path d="M72.942 47.1516C69.2742 47.1516 69.2081 44.3595 69.2081 43.2805V38.1975C69.2081 37.8808 69.1878 37.4736 69.8401 37.4736H71.73C72.3512 37.4736 72.3161 37.9024 72.3161 38.1975V43.2805C72.3161 43.6472 72.3775 44.6161 73.7117 44.6161H76.8907C78.2 44.6161 78.2762 43.6472 78.2762 43.2805V38.1975C78.2762 37.9017 78.2344 37.4736 78.8522 37.4736H80.7671C81.4559 37.4736 81.3937 37.9024 81.3937 38.1975V43.2805C81.3937 44.3615 81.3221 47.1516 77.6496 47.1516M90.5119 46.5304C89.2182 44.7883 87.3687 42.5979 85.4842 40.2738V46.4682C85.4842 46.7431 85.5504 47.1516 84.9035 47.1516H83.1358C82.4991 47.1516 82.5706 46.7437 82.5706 46.4682V38.1846C82.5706 37.8997 82.545 37.4709 83.1358 37.4709H86.5841C87.5571 37.4709 88.9481 39.427 89.8549 40.7309C90.5632 41.7093 91.8569 43.1961 92.7279 44.3177V38.1839C92.7279 37.899 92.6921 37.4702 93.3343 37.4702H95.2546C95.8656 37.4702 95.8312 37.899 95.8312 38.1839V47.1489H92.291C91.5307 47.1516 91.2047 47.2029 90.5119 46.5304ZM97.002 47.1516V37.4831H105.545C106.065 37.4831 109.575 37.4129 109.575 41.0996C109.575 44.8592 109.977 47.1516 105.616 47.1516H101.011L100.018 45.1347V47.1516M105.091 44.6046C106.645 44.6046 106.527 43.1178 106.527 42.4345C106.527 40.1522 105.885 40.059 104.862 40.059H99.9865V44.6033L105.091 44.6046ZM112.916 37.5445H120.792C121.454 37.5445 121.368 37.9807 121.368 38.7869C121.368 39.5405 121.47 39.9686 120.792 39.9686H114.567C114.404 39.9686 113.834 39.8882 113.834 40.4682C113.834 41.059 113.727 41.294 114.348 41.294H119.85L120.737 43.0557C120.864 43.3001 120.849 43.5148 120.365 43.5148H114.668L113.787 41.7923V44.3298C113.787 44.9206 114.312 44.8085 114.465 44.8085H120.929C121.571 44.8085 121.515 45.2569 121.515 45.9902C121.515 46.7748 121.571 47.2137 120.929 47.2137H112.747C112.065 47.2137 110.735 47.001 110.735 44.8693V39.5411C110.735 38.9807 111.026 37.5445 112.916 37.5445ZM123.492 37.4824H132.106C133.262 37.4824 134.943 37.4716 134.943 40.5911C134.943 42.6289 134.51 42.7302 133.583 43.3622C135.136 43.6276 134.928 45.6134 134.928 46.6418C134.928 47.1624 134.739 47.1509 134.586 47.1509H132.059C131.529 47.1509 131.657 46.3163 131.657 45.8781C131.657 44.6965 130.995 44.7464 130.735 44.7464H127.016C126.66 44.1245 125.967 42.739 125.967 42.739V46.7532L125.493 47.1502H122.951L122.696 46.8335V38.317C122.697 37.7174 123.119 37.4824 123.492 37.4824ZM130.353 40.0401H126.517C125.875 40.0401 125.906 40.2528 125.906 40.448V42.1786H129.854C131.77 42.1786 131.77 41.6998 131.77 41.2008C131.769 40.2029 131.688 40.0401 130.353 40.0401ZM149.777 37.5445C150.409 37.5445 151.025 37.8295 151.689 39.1232C152.138 40.0503 155.266 45.7052 155.928 46.8869V47.2123H152.668L151.729 45.5108H147.764L146.907 43.5641C146.663 43.9611 145.354 46.4473 144.905 47.211H141.635V46.9983C142.302 45.7444 146.857 37.5425 146.857 37.5425M148.759 40.2245L147.159 43.1272L147.307 43.2711H150.272L150.42 43.1272L148.907 40.2143L148.759 40.2245ZM157.996 37.4824H166.616C167.767 37.4824 169.448 37.4716 169.448 40.5911C169.448 42.6289 169.019 42.7302 168.092 43.3622C169.653 43.6276 169.437 45.6134 169.437 46.6418C169.437 47.1624 169.244 47.1509 169.09 47.1509H166.564C166.035 47.1509 166.167 46.3163 166.167 45.8781C166.167 44.6965 165.505 44.7464 165.25 44.7464H161.522C161.165 44.1245 160.471 42.739 160.471 42.739V46.7532L160.005 47.1502H157.457L157.202 46.8335V38.317C157.202 37.7174 157.629 37.4824 157.996 37.4824ZM164.863 40.0401H161.023C160.381 40.0401 160.412 40.2528 160.412 40.448V42.1786H164.365C166.27 42.1786 166.27 41.6998 166.27 41.2008C166.269 40.2029 166.199 40.0401 164.863 40.0401ZM176.978 47.1516C176.337 45.9497 174.554 42.6282 173.351 40.448V46.4797C173.351 46.7343 173.392 47.1516 172.771 47.1516H171.029C170.377 47.1516 170.427 46.7343 170.427 46.4797V38.1954C170.427 37.8997 170.386 37.4817 171.029 37.4817H174.045C174.493 37.4817 175.134 37.3804 175.848 38.8166C176.389 39.9679 177.529 42.3629 178.325 43.6262C179.119 42.3629 180.291 39.9679 180.83 38.8166C181.533 37.3804 182.154 37.4817 182.665 37.4817H185.67C186.281 37.4817 186.21 37.8997 186.21 38.1954V46.4797C186.21 46.7343 186.302 47.1516 185.67 47.1516H183.907C183.266 47.1516 183.317 46.7343 183.317 46.4797V40.448C182.094 42.6282 180.331 45.9483 179.66 47.1516M190.08 47.1718C187.227 47.1718 187.35 44.1164 187.35 42.1198C187.35 40.3048 187.145 37.4635 190.721 37.4331H197.079C200.666 37.4331 200.431 40.317 200.431 42.1198C200.431 44.1164 200.574 47.1718 197.67 47.1718M195.826 44.6857C197.273 44.6857 197.221 43.188 197.221 42.1907C197.221 41.2832 197.435 39.8767 195.549 39.8767H192.352C190.478 39.8767 190.701 41.2832 190.701 42.1907C190.701 43.1894 190.609 44.6857 192.057 44.6857H195.826ZM205.209 47.1516C201.551 47.1516 201.481 44.3595 201.481 43.2805V38.1975C201.481 37.8808 201.461 37.4736 202.113 37.4736H204.009C204.63 37.4736 204.589 37.9024 204.589 38.1975V43.2805C204.589 43.6472 204.65 44.6161 205.984 44.6161H209.162C210.477 44.6161 210.549 43.6472 210.549 43.2805V38.1975C210.549 37.9017 210.518 37.4736 211.129 37.4736H213.033C213.726 37.4736 213.666 37.9024 213.666 38.1975V43.2805C213.666 44.3615 213.604 47.1516 209.917 47.1516M215.703 37.4824H224.323C225.474 37.4824 227.154 37.4716 227.154 40.5911C227.154 42.6289 226.717 42.7302 225.789 43.3622C227.349 43.6276 227.145 45.6134 227.145 46.6418C227.145 47.1624 226.952 47.1509 226.798 47.1509H224.272C223.752 47.1509 223.875 46.3163 223.875 45.8781C223.875 44.6965 223.202 44.7464 222.947 44.7464H219.229C218.873 44.1245 218.179 42.739 218.179 42.739V46.7532L217.7 47.1502H215.162L214.908 46.8335V38.317C214.908 37.7174 215.336 37.4824 215.703 37.4824ZM222.559 40.0401H218.728C218.086 40.0401 218.116 40.2528 218.116 40.448V42.1786H222.07C223.974 42.1786 223.974 41.6998 223.974 41.2008C223.976 40.2029 223.894 40.0401 222.559 40.0401Z" fill="#838383"/>
<path d="M57.4299 53.4385C61.2167 52.0465 62.3859 51.1439 62.3859 51.1439C62.1066 45.3283 53.0688 40.5365 42.1193 40.5327C31.1689 40.5365 22.1313 45.3283 21.8506 51.1439C21.8506 51.1439 23.0222 52.0465 26.8078 53.4385C30.1317 54.6616 32.6688 54.9411 32.6688 54.9411L32.6559 47.6903C32.6559 44.6259 36.1185 41.3723 42.0345 41.3723L42.1166 41.3697H42.1191L42.2024 41.3723C48.1177 41.3723 51.5817 44.6259 51.5817 47.6903L51.5689 54.9411C51.5689 54.9411 54.1048 54.6616 57.4299 53.4385Z" fill="#838383"/>
<path d="M62.3812 34.8588C62.3812 34.8588 61.2118 33.9536 57.425 32.5629C54.1022 31.34 51.5642 31.0591 51.5642 31.0591L51.5768 38.311C51.5768 41.3762 48.113 44.631 42.1974 44.631H42.0282C36.1134 44.631 32.6508 41.3762 32.6508 38.311L32.6623 31.0591C32.6623 31.0591 30.1266 31.3398 26.8025 32.5629C23.0159 33.9536 21.8467 34.8588 21.8467 34.8588C22.1274 40.6749 31.1626 45.4668 42.1116 45.4693H42.1142C53.0639 45.4668 62.1013 40.6749 62.3812 34.8588Z" fill="#838383"/>
</g>
</svg>
