<svg width="156" height="84" viewBox="0 0 156 84" fill="none" xmlns="http://www.w3.org/2000/svg">
<path opacity="0.5" fill-rule="evenodd" clip-rule="evenodd" d="M28.1049 32.8088C25.4517 33.3095 23.5061 34.8267 22.2876 37.3452C21.836 38.2784 21.584 39.1296 21.3642 40.463C21.2823 40.9604 21.2822 43.0918 21.3641 43.5899C21.7756 46.0915 22.7938 48.0921 24.3171 49.3918C25.4935 50.3956 26.7296 50.9491 28.3375 51.1919C29.1757 51.3186 30.8796 51.2753 31.6232 51.1084C33.2444 50.7447 34.6874 49.8819 35.5301 48.7723C36.1814 47.9148 36.5867 47.0761 36.8649 46.01C36.9829 45.5577 37.1182 44.5934 37.0782 44.4892C37.0529 44.4232 36.8466 44.4112 35.9635 44.424L34.8798 44.4398L34.8166 44.8469C34.7072 45.5503 34.5695 45.9914 34.2714 46.5915C33.6183 47.9066 32.7643 48.6584 31.3906 49.1276C31.0109 49.2573 30.8993 49.2666 29.7332 49.2666C28.5224 49.2666 28.4665 49.2614 27.9667 49.1026C26.6625 48.6882 25.591 47.8739 24.8664 46.7466C24.3639 45.965 23.9109 44.8269 23.7052 43.8292C23.5595 43.1227 23.5612 41.0056 23.7081 40.2237C23.993 38.7072 24.759 37.1026 25.5951 36.2707C26.8844 34.988 28.5658 34.4556 30.5488 34.7022C32.5342 34.9491 34.0762 36.2039 34.5579 37.9644L34.659 38.3337L35.7434 38.3495L36.8279 38.3653L36.8271 38.2332C36.8256 38.0161 36.6181 37.2592 36.4311 36.7889C35.9451 35.5665 35.0683 34.5006 34.0075 33.8426C33.128 33.2971 32.2645 32.9753 31.1618 32.7823C30.6988 32.7012 28.5777 32.7196 28.1049 32.8088ZM46.3943 32.8085C42.5335 33.4172 39.7676 36.4896 39.2737 40.718C39.1499 41.778 39.2055 43.0914 39.4227 44.2363C39.7747 46.0921 40.8976 48.1314 42.171 49.2274C43.4653 50.3414 44.7937 50.9542 46.4831 51.2167C47.1181 51.3154 49.3434 51.2593 49.9126 51.1303C52.1304 50.6276 53.8826 49.4295 55.062 47.6092C55.8386 46.4109 56.33 45.1011 56.539 43.6727C56.6316 43.0406 56.616 40.8759 56.5146 40.2528C56.0401 37.3409 54.4037 34.9149 52.098 33.7049C51.1742 33.2202 50.3918 32.9624 49.3751 32.8079C48.6881 32.7036 47.0579 32.7039 46.3943 32.8085ZM65.7886 32.7868C64.598 33.0256 64.1655 33.1692 63.3597 33.5934C61.8195 34.4043 60.6754 35.6113 59.8588 37.2869C59.3415 38.3484 59.046 39.334 58.926 40.3981C58.845 41.1164 58.8447 42.9649 58.9254 43.6288C59.2894 46.6223 61.0328 49.247 63.4593 50.455C64.6032 51.0245 65.7714 51.2729 67.3052 51.2729C68.9061 51.2729 70.0543 50.9851 71.319 50.2669C73.0557 49.2806 74.2531 47.3675 74.5742 45.0659C74.6111 44.8025 74.6259 44.5474 74.6073 44.4989C74.5788 44.4247 74.4087 44.4108 73.532 44.4108C72.7682 44.4108 72.4752 44.4301 72.4332 44.4835C72.4017 44.5235 72.3593 44.7233 72.3389 44.9278C72.2898 45.4211 72.1055 46.0258 71.8374 46.5741C71.1644 47.9497 70.1226 48.8132 68.6861 49.1855C68.2636 49.295 68.099 49.3049 67.1034 49.2804C66.097 49.2556 65.9455 49.2381 65.4978 49.0947C64.2151 48.684 63.2291 47.9459 62.4825 46.8378C61.8432 45.8888 61.4102 44.7814 61.2197 43.6083C61.069 42.6802 61.128 40.6561 61.3306 39.8027C61.7734 37.9372 62.7312 36.4434 64.0149 35.6162C65.565 34.6172 67.5153 34.3858 69.2197 34.9986C70.1059 35.3171 70.8349 35.7998 71.2731 36.3581C71.6083 36.7852 71.9703 37.4873 72.1042 37.9702L72.2131 38.3628H73.3054H74.3976L74.3707 38.2319C74.2438 37.6132 74.1948 37.4164 74.0927 37.1125C73.3214 34.8182 71.4439 33.2958 68.7835 32.8074C68.2611 32.7115 66.2335 32.6975 65.7886 32.7868ZM84.2276 32.8141C83.4536 32.9268 82.7871 33.1034 82.1077 33.376C81.5426 33.6028 81.4229 33.6613 80.8504 33.9905C78.5837 35.2944 77.0833 37.8256 76.7815 40.855C76.5261 43.4185 77.0915 45.8166 78.4068 47.7488C79.2096 48.9283 80.2159 49.7681 81.6113 50.4234C82.7871 50.9754 83.7916 51.2113 85.1538 51.2554C86.1744 51.2883 86.802 51.222 87.7441 50.9819C89.3639 50.5691 91.106 49.502 92.0272 48.3583C93.0558 47.0813 93.7388 45.5325 94.0246 43.8292C94.1352 43.1701 94.1366 40.9652 94.0268 40.2528C93.7981 38.7673 93.3321 37.5644 92.4949 36.2983C90.8442 33.8014 87.4043 32.3517 84.2276 32.8141ZM127.781 32.93C125.324 33.3848 123.497 35.1586 122.982 37.5887C122.866 38.1357 122.869 39.5747 122.987 40.147C123.34 41.8585 124.423 43.3089 125.989 44.1706C126.696 44.5594 127.935 44.873 128.769 44.8748C129.248 44.8758 130.126 44.7345 130.591 44.5817C132.42 43.9813 133.814 42.607 134.397 40.8309C134.805 39.5895 134.798 38.0552 134.38 36.8217C133.982 35.6467 133.098 34.508 132.064 33.839C131.629 33.5575 130.819 33.1658 130.543 33.1036C129.36 32.8372 128.555 32.7866 127.781 32.93ZM113.652 33.2452C113.628 33.2932 113.536 33.5287 113.449 33.7686C113.362 34.0085 113.268 34.2571 113.241 34.3211C113.213 34.385 113.082 34.7383 112.95 35.1061C112.726 35.7283 112.405 36.6032 111.934 37.8685C111.827 38.1563 111.635 38.6797 111.506 39.0315C111.09 40.173 110.679 41.2879 110.479 41.8229C110.371 42.1108 110.043 43.0005 109.75 43.8002C109.021 45.793 108.676 46.7312 108.445 47.3475C107.767 49.1615 107.194 50.7572 107.194 50.8342C107.194 50.9119 107.337 50.9239 108.255 50.9231C108.839 50.9226 109.346 50.903 109.383 50.8795C109.419 50.856 109.489 50.719 109.539 50.5751C109.589 50.4311 109.765 49.9339 109.93 49.4702C110.095 49.0064 110.251 48.5615 110.277 48.4815C110.303 48.4016 110.46 47.9567 110.625 47.4929C110.791 47.0291 111.011 46.4011 111.115 46.0972L111.303 45.5448L114.849 45.5298L118.394 45.5148L118.759 46.5475C118.959 47.1154 119.184 47.7503 119.259 47.9582C119.334 48.1661 119.504 48.6502 119.638 49.034C120.026 50.1499 120.164 50.5333 120.252 50.735L120.335 50.924H121.489C122.124 50.924 122.659 50.9085 122.678 50.8895C122.697 50.8705 122.626 50.6154 122.519 50.3225C122.099 49.1663 121.683 48.0339 121.597 47.8128C121.498 47.5579 121.208 46.7707 120.395 44.5562C120.102 43.7565 119.73 42.749 119.569 42.3172C119.409 41.8854 119.147 41.1789 118.987 40.7471C118.828 40.3153 118.611 39.7265 118.504 39.4386C118.397 39.1507 118.18 38.5619 118.02 38.1301C117.861 37.6984 117.6 36.9918 117.439 36.56C117.279 36.1282 117.039 35.474 116.906 35.1061C116.773 34.7383 116.555 34.1526 116.422 33.8045L116.179 33.1717L114.937 33.1649C113.888 33.159 113.689 33.1715 113.652 33.2452ZM94.6142 33.2349C94.5279 33.2516 94.5166 33.357 94.5166 34.1438C94.5166 34.8475 94.5341 35.0483 94.6003 35.1033C94.6631 35.1553 95.3887 35.1706 97.4935 35.164C99.0387 35.1591 100.336 35.1572 100.375 35.1597C100.433 35.1634 100.451 36.7991 100.463 43.0296L100.477 50.8949L101.52 50.9109C102.093 50.9196 102.584 50.9046 102.612 50.8776C102.639 50.8506 102.66 47.3188 102.659 43.0293C102.658 37.6726 102.676 35.2183 102.718 35.1926C102.751 35.1719 104.05 35.1573 105.605 35.1601C107.627 35.1637 108.454 35.1464 108.511 35.0995C108.571 35.0492 108.59 34.8231 108.59 34.14V33.2462L101.651 33.2311C97.8343 33.2229 94.6678 33.2246 94.6142 33.2349ZM127.781 33.8521C126.364 34.1508 125.094 35.1335 124.439 36.4372C124.212 36.8886 124.011 37.5383 123.948 38.0265C123.875 38.5929 123.919 39.7945 124.031 40.2412C124.592 42.4979 126.485 43.9973 128.78 44.0024C131.042 44.0075 132.942 42.5216 133.506 40.3052C133.628 39.8286 133.653 39.5922 133.654 38.9335C133.655 37.578 133.369 36.6447 132.659 35.6805C132.045 34.8477 131.117 34.2175 130.078 33.9282C129.546 33.7802 128.315 33.7394 127.781 33.8521ZM46.4815 34.8414C44.034 35.3487 42.3657 37.12 41.6398 39.9819C41.5243 40.4369 41.512 40.6338 41.5107 42.0265C41.5092 43.6733 41.5307 43.8493 41.8552 44.8431C42.426 46.5916 43.5759 48.0144 44.9986 48.7322C45.871 49.1725 46.7031 49.3533 47.8585 49.3536C49.09 49.354 49.9097 49.1808 50.814 48.7293C51.569 48.3524 52.3944 47.6414 52.891 46.9405C53.1861 46.5239 53.6487 45.6172 53.8256 45.1086C54.2127 43.9953 54.2956 43.454 54.293 42.0555C54.2906 40.7902 54.1932 40.0996 53.8884 39.1856C53.6926 38.5987 53.2411 37.7008 52.8769 37.1738C52.1447 36.1147 50.9667 35.2972 49.6313 34.9216C49.2556 34.8159 49.0031 34.7936 48.0226 34.7797C47.2141 34.7682 46.7443 34.787 46.4815 34.8414ZM84.3106 34.841C82.9896 35.1056 81.9343 35.6504 81.0029 36.5484C80.2621 37.2628 79.5458 38.6082 79.2622 39.8178C79.0466 40.7376 79.0231 40.9707 79.0274 42.1428C79.031 43.1544 79.0514 43.423 79.1618 43.9165C79.4135 45.0415 79.7685 45.9042 80.3345 46.766C81.2294 48.1288 82.9651 49.1195 84.7802 49.3035C86.6461 49.4927 88.4857 48.8758 89.8257 47.6117C90.7231 46.7652 91.3817 45.4388 91.7328 43.7711C91.8604 43.1656 91.8412 40.8547 91.7035 40.2237C91.0388 37.1778 89.3003 35.3738 86.5204 34.8456C85.973 34.7416 84.8187 34.7392 84.3106 34.841ZM114.794 35.728C114.713 35.9457 114.556 36.3855 114.447 36.7054C114.271 37.2165 113.917 38.2233 113.067 40.6308C112.937 40.9986 112.779 41.4566 112.714 41.6485C112.65 41.8404 112.582 42.0366 112.563 42.0846C112.391 42.5158 112.065 43.475 112.058 43.5675C112.05 43.6822 112.091 43.6841 114.885 43.6998C117.542 43.7147 117.72 43.7094 117.72 43.6149C117.72 43.5123 117.489 42.8172 116.439 39.7585C116.116 38.8149 115.788 37.8466 115.712 37.6068C115.161 35.8706 115.004 35.3951 114.975 35.3657C114.956 35.3472 114.875 35.5103 114.794 35.728ZM126.47 35.7022C126.454 35.7422 126.449 37.1619 126.457 38.8571L126.472 41.9392L126.879 41.9515C127.61 41.9735 127.543 42.1017 127.561 40.6445L127.577 39.3805L128.246 39.3817C129.019 39.383 129.159 39.4119 129.407 39.62C129.67 39.8417 129.753 40.0436 129.789 40.5541C129.839 41.248 129.917 41.7347 129.994 41.8269C130.046 41.8894 130.214 41.9102 130.673 41.9102C131.233 41.9102 131.278 41.9018 131.235 41.8084C131.209 41.7524 131.183 41.3007 131.177 40.8045C131.164 39.651 131.092 39.4495 130.553 39.0549L130.33 38.8918L130.553 38.7988C131.108 38.567 131.383 38.1055 131.384 37.4032C131.385 36.8192 131.232 36.4575 130.836 36.109C130.323 35.6571 130.172 35.6295 128.213 35.6295C126.894 35.6295 126.491 35.6463 126.47 35.7022ZM127.765 36.7112C127.742 36.7346 127.722 37.1284 127.722 37.5863V38.4187L127.866 38.4548C127.945 38.4746 128.344 38.481 128.753 38.4689C129.593 38.4441 129.868 38.3554 130.055 38.0476C130.303 37.6413 130.135 36.9993 129.727 36.7926C129.542 36.6989 127.848 36.6286 127.765 36.7112Z" fill="#838383"/>
</svg>
