<svg width="169" height="84" viewBox="0 0 169 84" fill="none" xmlns="http://www.w3.org/2000/svg">
<g opacity="0.5" clip-path="url(#clip0_408_64)">
<path d="M147 45.7868L141.361 42.4446C141.207 42.4238 141.223 42.4392 141.226 42.5811C141.234 43.0717 141.394 43.7059 141.411 44.202C141.421 44.5218 141.486 45.0179 141.274 45.2447H130.266C130.096 45.3684 130.215 45.7714 130.263 45.9711C130.975 48.96 134.97 49.1804 136.883 47.1863C136.957 47.1095 136.957 46.9614 136.969 46.9614H141.319C141.022 47.5179 140.798 48.1224 140.452 48.6537C140.09 49.2084 139.349 49.831 139.082 50.3315C138.829 50.805 138.66 51.6733 138.456 52.2244C137.344 55.2287 134.968 61.6997 132.032 63.1237C128.53 64.8214 122.772 62.2464 119.539 60.592C118.652 60.1384 117.803 59.5972 116.907 59.1599C117.288 62.0223 117.498 64.9064 117.613 67.7913C117.713 70.2715 117.912 72.9938 117.415 75.4424C117.108 76.954 116.447 77.432 115.103 76.5809C113.554 75.6005 111.202 72.3261 109.986 70.7657C105.339 64.7988 101.096 58.4786 97.4713 51.8115C96.3501 51.5269 95.1508 51.5441 94.4077 50.4797C94.0624 49.9846 93.7366 48.7784 93.7366 48.1811V39.7331H91.9611C91.986 40.4008 92.1999 41.1002 92.231 41.7625C92.3766 44.8182 91.9336 47.8215 92.3287 50.9694C92.3615 51.2296 92.4094 51.5025 92.4938 51.7501H87.8776V49.943L86.8931 50.9739C85.7328 51.7998 84.3231 52.1729 82.9063 52.1124C83.1353 52.9996 83.3421 53.9005 83.4993 54.8058C83.9422 57.342 84.6347 62.2274 83.0323 64.3941C81.793 66.0701 78.9159 64.5684 77.5195 63.7833C75.8079 62.8219 74.2748 61.5488 72.7248 60.349C72.6387 60.3354 71.5814 61.1332 71.3364 61.2534C67.0265 63.3631 60.6659 59.4761 57.2747 56.8279C55.7203 57.0375 54.2671 57.2761 52.6905 57.07C49.8613 56.7005 46.9672 54.9296 46.5979 51.8413H50.9478C51.3225 54.1815 55.4921 54.4164 56.6675 52.8289C56.901 52.5136 57.2507 51.6308 57.2507 51.254V48.8597L56.498 49.765C49.666 54.4869 43.8975 47.1547 46.5065 40.1379C48.2074 35.5642 54.3026 34.5279 57.2499 38.3778V36.3901H61.8661V50.1689L63.0201 51.1176V36.3901H67.7251V38.2875L68.7087 37.2557C70.3297 35.9997 72.4408 35.763 74.3822 36.2988C74.3201 34.4005 74.4728 32.5112 74.8288 30.649C72.4416 24.4093 68.9671 18.3918 67.101 11.9514C66.6891 10.5302 65.3105 5.81284 68.4069 7.27927C69.8628 7.96957 71.8034 10.1489 72.8713 11.4093C77.088 16.3859 80.9914 21.5695 85.4825 26.3166C87.2668 28.2023 88.7964 29.5061 90.76 31.1514C91.772 31.9998 92.7468 32.8952 93.7357 33.7698V32.2338H98.3519V36.2545L98.4851 36.3901H106.342V42.6244L111.402 44.5218V36.3901H115.929C116.263 34.77 117.125 32.7687 118.581 31.9059C121.755 30.0238 127.075 33.1997 129.859 34.9065C130.242 35.1414 131.346 35.9943 131.641 36.082C131.936 36.1696 132.573 35.9501 132.926 35.9347C136.972 35.7531 139.941 37.7607 141.094 41.7245L147.001 45.335V45.7868H147ZM86.0497 27.5879C84.1056 25.3246 81.9715 23.2085 80.0193 20.9406C77.1475 17.6039 74.4763 13.7955 71.545 10.5916C70.7807 9.75584 68.5702 7.5693 67.4925 7.47895C67.0957 7.44552 66.983 7.71387 66.9341 8.07257C66.7309 9.5661 67.6665 12.2098 68.1672 13.6681C70.0465 19.139 72.771 24.2584 74.9167 29.6127L75.5345 28.3911C77.6047 25.3065 81.398 25.8098 84.3852 27.0675C84.9427 27.3024 85.889 27.9403 86.324 28.0758C86.3702 28.0903 86.4687 28.1011 86.4554 28.0324C86.3338 27.8743 86.1758 27.7352 86.0488 27.5879H86.0497ZM93.7357 36.3901V34.8089C92.7308 33.9379 91.7001 33.085 90.7165 32.1896C88.3205 30.0103 86.7244 28.4273 83.5729 27.2626C80.2102 26.0203 75.8124 26.1956 75.3774 30.631L78.7348 39.0103C79.4725 38.2007 80.1472 37.4056 81.129 36.8852C83.7691 35.4847 88.8585 35.3808 90.9411 37.8348C91.0912 38.0119 91.1684 38.2622 91.3397 38.3778V36.3901H93.7366H93.7357ZM77.4902 51.7501H75.0045C75.0063 54.5221 74.8439 57.6194 73.0586 59.8502C73.657 60.5613 74.5598 61.2064 75.3312 61.763C76.788 62.8138 79.9039 64.9145 81.6989 64.6633C83.0208 64.4781 83.4575 62.2175 83.5303 61.1061C83.7292 58.0802 83.0527 55.0507 82.4579 52.116C77.7219 52.2009 75.4981 46.2413 79.9803 43.837L79.1343 41.448L78.0228 41.3595L78.4498 39.5289L75.2265 31.511C74.9832 31.5101 74.7196 36.0269 74.8412 36.4217C75.1697 36.7018 75.5674 36.8554 75.8932 37.1581C77.1413 38.3173 77.4174 40.4912 77.4937 42.1248C77.642 45.2889 77.3748 48.5751 77.4902 51.751V51.7501ZM117.261 45.7868V36.3901H121.699V39.191L122.336 38.077C122.844 37.2602 124.246 36.2997 125.206 36.2997H126.582V39.7331L127.513 38.4673C128.546 37.3325 129.529 36.9692 130.846 36.3467C130.926 36.3088 131.092 36.3214 130.977 36.2094C128.25 34.4909 125.211 32.4426 121.982 31.9013C117.753 31.193 116.644 34.6661 116.019 38.1538L116.013 45.5464L117.26 45.7877L117.261 45.7868ZM82.3727 41.3595H79.6208L80.4614 43.6057C82.7101 42.628 85.1877 42.3525 87.6112 42.1736C87.7382 40.3891 87.2668 39.1874 85.3511 39.097C83.8029 39.0248 82.5778 39.7033 82.3727 41.3595ZM136.702 42.4437C136.78 38.4528 130.42 38.6426 130.222 42.4437H136.702ZM53.4113 39.7566C49.9971 40.2274 49.7645 46.4427 53.0385 47.4077C55.3883 48.1007 57.2277 46.7436 57.4265 44.2941C57.6591 41.4209 56.5237 39.3274 53.4113 39.7557V39.7566ZM72.7852 51.7501V41.9468C72.7852 41.7652 72.5633 41.0189 72.4745 40.8174C71.8043 39.3085 69.3683 39.4006 68.438 40.5933C68.1308 40.9872 67.726 42.095 67.726 42.5792V51.7501H63.82L72.6547 59.6054C74.4337 57.4143 74.4612 54.4607 74.5616 51.7501H72.7861H72.7852ZM97.9968 51.7501L100.233 55.7536C103.938 61.7377 107.904 67.6097 112.38 73.0264C113.463 74.3365 114.615 75.9818 116.242 76.5664C116.696 76.2664 116.872 75.69 116.971 75.1732C117.573 72.0271 117.23 67.8519 116.993 64.6254C116.852 62.7108 116.617 60.7953 116.418 58.8861C113.023 56.7854 109.696 54.5754 106.494 52.1811C100.352 51.882 101.963 44.97 101.708 40.699C101.684 40.6177 100.432 39.7331 100.348 39.7331H98.351V46.8258C98.351 46.8638 98.4593 47.433 98.4807 47.5071C98.5756 47.8288 99.047 48.3167 99.3719 48.3167H101.591L101.724 48.4522V51.7501H97.9959H97.9968ZM126.049 40.8174H124.584C124.014 40.8174 123.047 41.2131 122.628 41.6269C122.275 41.9748 121.877 42.9081 121.877 43.3924V45.8771L125.605 45.5148C125.369 43.9391 125.526 42.3172 126.049 40.8174ZM106.342 43.1665V45.6512C106.342 45.9187 106.497 46.7472 106.581 47.0336C106.993 48.4314 108.363 48.7178 109.63 48.3654C111.093 47.9589 111.265 46.422 111.403 45.1155L106.342 43.1656V43.1665ZM87.6991 44.9736C86.8478 45.0007 85.9476 45.1073 85.1087 45.2736C84.2698 45.4398 82.5973 45.8401 82.3931 46.8466C81.8605 49.4759 86.3755 49.625 87.3609 47.3851C87.4222 47.2451 87.6991 46.3686 87.6991 46.2837V44.9736ZM121.877 46.4192V51.7501H117.261V46.2385L116.018 46.1482V50.8005L116.898 58.5564C119.957 60.2884 123.313 62.1605 126.775 62.8915C131.292 63.8456 132.975 62.6349 135.119 58.7669C136.491 56.293 137.549 53.4604 138.388 50.7553C133.87 53.7333 126.653 51.835 125.688 45.9729L121.877 46.4183V46.4192ZM111.402 51.7501V49.672L110.605 50.7137C109.741 51.6389 108.553 52.0555 107.319 52.1567L116.329 58.2555L115.663 51.751H111.402V51.7501ZM57.7825 56.5397C59.6041 58.0522 61.7791 59.4265 63.9727 60.3128C66.5409 61.3501 70.0048 62.1262 72.2481 60.0074L61.8208 50.7562C61.6761 53.3014 60.2495 55.7545 57.7825 56.5397Z" fill="#838383"/>
<path d="M42.6027 31.0591H45.7098V34.8539H43.9343L44.2006 36.3899H45.7098V51.7499H41.0936V49.8525C40.0327 51.197 38.868 52.4484 37.492 53.4666L43.6192 66.2109C44.063 67.9114 43.1957 68.1156 42.023 67.1126C38.7748 64.3343 35.341 60.1735 32.344 56.9922C32.273 56.9172 32.234 56.8242 32.2073 56.7257L22.2976 60.5901C21.9247 60.6081 21.9185 60.3353 22.1884 60.1112C22.3695 59.9612 22.9092 59.7688 23.164 59.6585C25.9559 58.4433 29.0541 57.7584 31.7706 56.3128C31.1447 55.5402 30.4478 54.8228 29.8211 54.0512C29.2734 53.3772 28.2143 51.7066 27.6941 51.2467C27.2733 50.8753 26.4167 50.5636 25.8716 50.12C24.3331 48.8704 23.3336 46.9504 23.0726 44.9726H27.7332C28.0705 45.5788 28.2099 46.1824 28.6671 46.7326C29.9179 48.237 32.6042 48.4837 34.3486 47.9072L32.7995 43.6109C29.3426 42.7905 24.2976 42.3279 23.5422 37.944C22.6003 32.4759 28.913 30.1953 33.2211 30.779C33.7094 29.9496 34.0139 29.1021 34.748 28.4416C37.6199 25.8575 41.4691 27.6899 42.6018 31.0591H42.6027ZM40.3834 37.0224H35.5896C35.2798 35.6789 33.918 34.9091 32.661 34.6732C32.4266 36.1035 32.4452 37.5663 32.5216 39.0156C35.5905 39.7682 40.1011 40.361 40.8761 44.1558C41.5321 47.3669 39.4015 50.3323 36.4773 51.3C36.3823 51.4048 36.9869 52.6932 37.1112 52.8667C37.1653 52.9426 37.1911 53.0393 37.3127 53.0104C37.3775 52.995 38.2093 52.2785 38.3425 52.1583C39.3776 51.2223 40.2662 50.12 41.0936 48.9951V36.3908H43.668L43.4904 34.8548H41.0936V31.06C41.3634 31.0347 41.6768 31.0953 41.9387 31.06C42.0621 31.0438 42.0923 31.1097 42.0692 30.9254C41.6564 30.3797 41.4087 29.6821 40.9613 29.1608C39.2835 27.2056 36.1187 27.2742 34.5767 29.3506C34.3956 29.5945 33.8931 30.4809 33.8159 30.7456C33.7618 30.9308 33.8647 30.8567 33.9473 30.8766C34.408 30.9886 34.8652 31.0492 35.3224 31.1956C38.0637 32.0729 39.9688 34.0697 40.3834 37.0224ZM32.2162 34.6741C31.0657 34.4085 28.5721 34.9018 28.4052 36.3538C28.1903 38.2232 30.644 38.8241 32.0378 38.9198C31.8407 37.523 31.9659 36.0611 32.2162 34.6741ZM33.459 43.7989C33.3161 43.9462 34.5865 47.282 34.8421 47.6813C35.1484 47.7762 35.7876 46.9793 35.8985 46.6884C36.5572 44.9626 34.8191 44.0989 33.459 43.7989ZM36.029 51.5719C34.4373 52.0743 32.8625 52.1891 31.1971 52.1095L28.5765 51.6144C29.0186 52.264 29.5069 52.8992 30.0004 53.5082C30.2694 53.8416 32.1363 56.0896 32.3343 56.0715C33.8843 55.2918 35.436 54.4768 36.7925 53.3772L36.0299 51.571L36.029 51.5719ZM37.097 53.8281L32.6636 56.5784C35.8426 60.1762 39.2471 63.55 42.6 66.9771L43.1362 67.25C43.4993 67.081 43.1522 66.3338 43.0617 66.0546L37.0961 53.8281H37.097Z" fill="#838383"/>
</g>
<defs>
<clipPath id="clip0_408_64">
<rect width="125" height="70" fill="white" transform="translate(22 7)"/>
</clipPath>
</defs>
</svg>
