<svg width="103" height="84" viewBox="0 0 103 84" fill="none" xmlns="http://www.w3.org/2000/svg">
<path opacity="0.5" fill-rule="evenodd" clip-rule="evenodd" d="M50.2213 26.1657C34.529 27.2254 21.6791 28.103 21.6661 28.116C21.6479 28.1341 24.0326 62.37 24.0537 62.3935C24.0641 62.4051 81.3228 58.5386 81.3323 58.5257C81.3378 58.5183 80.8012 50.8393 80.1398 41.4614C79.4784 32.0835 78.9363 24.3704 78.9351 24.3212C78.9332 24.2447 78.9197 24.2321 78.8429 24.2353C78.7933 24.2373 65.9137 25.106 50.2213 26.1657ZM63.75 30.993C62.5193 31.0162 61.5091 31.0398 61.5051 31.0452C61.4894 31.0664 58.6732 53.5897 58.6848 53.6012C58.6979 53.6142 64.1777 53.5177 64.1887 53.5043C64.1983 53.4926 65.0141 46.9438 65.054 46.5587C65.0725 46.3796 65.1313 45.7744 65.1846 45.2139C65.2379 44.6534 65.2925 44.1773 65.3058 44.1559C65.3191 44.1344 65.7511 46.2126 66.2659 48.774L67.2018 53.4311L67.6912 53.4398C68.3087 53.4507 73.1354 53.3646 73.1578 53.3422C73.1705 53.3296 70.3597 44.3136 70.2729 44.0886C70.2595 44.0537 70.3592 43.9867 70.6413 43.8411C72.5717 42.8448 73.7806 40.9079 74.1392 38.2369C74.2123 37.6924 74.2403 36.3137 74.1885 35.8133C74.0425 34.4043 73.5751 33.3495 72.7458 32.5574C71.7653 31.6209 70.3401 31.1136 68.3007 30.9752C67.6897 30.9337 66.6731 30.9377 63.75 30.993ZM56.5554 31.1177C55.4902 31.137 54.6115 31.1602 54.6026 31.1691C54.573 31.1991 53.7964 37.4956 53.747 38.1067C53.6614 39.1653 53.6345 39.8312 53.5834 42.1617C53.5328 44.4687 53.5175 44.793 53.4647 44.6696C53.4493 44.6338 52.8378 41.5999 52.1058 37.9275C51.3738 34.2552 50.7698 31.2447 50.7635 31.2374C50.7438 31.215 45.5646 31.3058 45.5388 31.329C45.5128 31.3527 42.6814 53.867 42.7027 53.8808C42.7323 53.9 47.9546 53.798 47.976 53.7779C47.9962 53.7589 48.5907 49.115 48.8336 47.0799C48.9771 45.8768 49.0403 44.993 49.1465 42.6991C49.2176 41.1651 49.2416 40.81 49.2744 40.81C49.2861 40.81 49.8477 43.7057 50.5225 47.2449C51.1973 50.7841 51.7568 53.6916 51.7658 53.706C51.7797 53.7282 57.037 53.6521 57.06 53.6293C57.0696 53.6198 59.8832 31.1857 59.8832 31.1182C59.8832 31.063 59.5746 31.0629 56.5554 31.1177ZM32.786 31.5302C31.0333 31.5625 29.5959 31.5935 29.5919 31.5989C29.5778 31.618 26.7625 54.1458 26.7729 54.1562C26.7964 54.1795 34.4621 54.0305 34.8109 53.9999C36.3297 53.8667 37.6684 53.3527 38.7386 52.4916C39.2781 52.0576 39.8854 51.359 40.2861 50.7115C40.6829 50.0703 41.0913 49.0442 41.2714 48.2361C41.5447 47.0103 41.5275 45.6732 41.2271 44.7811C40.7868 43.4733 39.8024 42.6956 38.3157 42.4811C37.8949 42.4204 37.8023 42.3734 38.1034 42.3734C38.3376 42.3734 38.8657 42.2665 39.1718 42.1571C40.2232 41.7814 41.1238 40.9437 41.6961 39.809C42.3069 38.598 42.523 36.8683 42.2391 35.4636C41.8119 33.3501 40.184 31.9749 37.6421 31.58C37.2863 31.5248 36.4411 31.4608 36.1529 31.4673C36.0539 31.4696 34.5388 31.4979 32.786 31.5302ZM66.4165 35.8301C66.4084 35.8551 66.253 37.0774 66.0711 38.5464C65.8892 40.0153 65.7326 41.252 65.7232 41.2945L65.7061 41.3719L66.0923 41.3557C66.7584 41.3278 67.1284 41.1586 67.6405 40.6477C68.2133 40.0762 68.5472 39.3373 68.657 38.3981C68.7041 37.9954 68.6802 37.4251 68.6045 37.1458C68.4288 36.4974 68.0135 36.0674 67.3787 35.8766C67.1286 35.8014 66.4364 35.768 66.4165 35.8301ZM34.2608 38.2939C34.1297 39.3464 34.0232 40.2206 34.0239 40.2367C34.0263 40.2859 34.7762 40.2313 35.0623 40.1612C35.9576 39.9417 36.5308 39.3583 36.713 38.4812C36.9016 37.5734 36.662 36.8809 36.0535 36.5753C35.785 36.4404 35.4406 36.3804 34.9345 36.3804H34.499L34.2608 38.2939ZM33.4229 44.9667C33.386 45.1953 32.9125 49.049 32.9125 49.1206C32.9125 49.1898 32.9179 49.1904 33.3298 49.1693C33.8597 49.1422 34.2221 49.056 34.6145 48.8639C34.872 48.7378 34.9736 48.6638 35.2053 48.4332C35.439 48.2006 35.5101 48.1037 35.6362 47.8453C35.8325 47.4434 35.8926 47.1995 35.9134 46.7216C35.9413 46.0833 35.7972 45.6596 35.4428 45.3372C35.0802 45.0075 34.693 44.8827 33.9553 44.8577L33.4433 44.8404L33.4229 44.9667Z" fill="#838383"/>
</svg>
