<svg width="159" height="84" viewBox="0 0 159 84" fill="none" xmlns="http://www.w3.org/2000/svg">
<g opacity="0.5">
<g clip-path="url(#clip0_408_79)">
<path fill-rule="evenodd" clip-rule="evenodd" d="M118.651 29.097C118.651 28.6177 118.262 28.2285 117.783 28.2285H115.721C115.242 28.2285 114.853 28.6177 114.853 29.097V53.0731C114.853 53.5525 115.242 53.9416 115.721 53.9416H117.783C118.262 53.9416 118.651 53.5525 118.651 53.0731V29.097Z" fill="#838383"/>
<path d="M85.5764 50.4713C85.2491 50.094 85.0842 49.6019 85.1182 49.1036V47.052C85.1387 46.8468 85.1489 46.6314 85.1489 46.416C85.1489 46.2006 85.1489 45.9954 85.1182 45.78C85.0501 44.9597 84.8456 44.1565 84.5129 43.4036C83.9591 42.1526 83.0777 41.0738 81.9622 40.2818C80.689 39.3764 79.1648 38.8896 77.6025 38.8896C73.4759 38.8896 70.0801 42.2854 70.0801 46.4121C70.0801 50.5388 73.4759 53.9345 77.6025 53.9345C79.2081 53.9345 80.7722 53.4206 82.0648 52.4681C82.1757 52.6188 82.2956 52.7627 82.4238 52.899C83.3333 53.7469 84.6258 54.1778 86.2842 54.1778C86.4586 54.1778 86.6261 54.1573 86.8073 54.147V51.6954C86.8189 51.3225 86.5853 50.9832 86.2329 50.8611C85.9842 50.7898 85.758 50.6555 85.5764 50.4713ZM77.6504 50.1293C77.6471 50.1293 77.6438 50.1293 77.6404 50.1293C75.6108 50.1293 73.9407 48.4593 73.9407 46.4297C73.9407 44.4001 75.6108 42.73 77.6404 42.73C79.1445 42.73 80.5053 43.6473 81.0697 45.0414C81.4344 45.933 81.4344 46.9332 81.0697 47.8248C80.5015 49.2106 79.1481 50.1227 77.6504 50.1293Z" fill="#838383"/>
<path d="M136.158 50.4713C135.832 50.0932 135.668 49.6017 135.7 49.1036V47.052C135.721 46.8468 135.731 46.6314 135.731 46.416C135.731 46.2006 135.731 45.9954 135.7 45.78C135.632 44.9597 135.428 44.1565 135.095 43.4036C134.541 42.1526 133.66 41.0738 132.544 40.2818C131.271 39.3764 129.747 38.8896 128.185 38.8896C124.058 38.8896 120.662 42.2854 120.662 46.4121C120.662 50.5388 124.058 53.9345 128.185 53.9345C129.79 53.9345 131.354 53.4206 132.647 52.4681C132.752 52.6183 132.866 52.7622 132.989 52.899C133.902 53.7469 135.191 54.1778 136.849 54.1778C137.023 54.1778 137.191 54.1573 137.372 54.147V51.6988C137.382 51.3257 137.149 50.9863 136.798 50.8611C136.549 50.7904 136.323 50.6559 136.141 50.4713M128.205 50.1293C128.2 50.1293 128.196 50.1293 128.191 50.1293C126.156 50.1293 124.481 48.4547 124.481 46.4194C124.481 44.3842 126.156 42.7095 128.191 42.7095C130.226 42.7095 131.901 44.3842 131.901 46.4194C131.901 46.9014 131.807 47.3788 131.624 47.8248C131.058 49.2117 129.703 50.1245 128.205 50.1293Z" fill="#838383"/>
<path d="M111.628 50.8407L111.58 53.2991C111.575 53.7149 111.261 54.0672 110.849 54.1198C110.158 54.1937 109.464 54.2269 108.77 54.2189C107.635 54.2189 106.824 54.0137 106.352 53.6137C105.88 53.2136 105.638 52.4888 105.638 51.463V39.909C105.638 39.4456 106.019 39.0645 106.482 39.0645C106.488 39.0645 106.494 39.0645 106.499 39.0646H108.534C108.535 39.0646 108.536 39.0646 108.537 39.0646C109.001 39.0646 109.382 39.4458 109.382 39.9091V49.0592C109.379 50.0087 110.142 50.7992 111.091 50.8304H111.645" fill="#838383"/>
<path d="M61.3306 49.1955L60.2364 50.276C60.1106 50.4005 60.0401 50.5708 60.0415 50.7479V53.1038C60.0418 53.1106 60.0419 53.1175 60.0419 53.1243C60.0419 53.4882 59.7424 53.7876 59.3786 53.7876C59.3772 53.7876 59.376 53.7876 59.3748 53.7876H56.9368C56.9299 53.7878 56.9231 53.7879 56.9163 53.7879C56.5524 53.7879 56.2529 53.4885 56.2529 53.1246C56.2529 53.1245 56.2529 53.1244 56.2529 53.1243V28.8917C56.2529 28.8916 56.2529 28.8915 56.2529 28.8913C56.2529 28.5275 56.5524 28.228 56.9163 28.228C56.9231 28.228 56.9299 28.2281 56.9368 28.2284H59.3748C59.3759 28.2284 59.3771 28.2284 59.3782 28.2284C59.7421 28.2284 60.0415 28.5278 60.0415 28.8917V45.5061C60.0447 45.6164 60.1362 45.7054 60.2466 45.7054C60.2971 45.7054 60.3458 45.6868 60.3835 45.6531L67.2221 38.9752C67.3476 38.8559 67.5139 38.7887 67.6871 38.7872H70.3405C70.3412 38.7872 70.342 38.7872 70.3428 38.7872C70.7067 38.7872 71.0062 39.0866 71.0062 39.4505C71.0062 39.6227 70.939 39.7884 70.8191 39.9121L65.0337 45.8651C64.8019 46.103 64.7827 46.4803 64.9893 46.7404L69.6805 52.7037C69.7778 52.8223 69.8309 52.971 69.8309 53.1244C69.8309 53.4882 69.5316 53.7877 69.1676 53.7877C69.1643 53.7877 69.1608 53.7877 69.1574 53.7876H66.2783C66.0768 53.7888 65.8853 53.6981 65.7586 53.5414L62.3153 49.2502C62.1855 49.0991 61.996 49.0121 61.7967 49.0121C61.6238 49.0121 61.4571 49.0777 61.3306 49.1955Z" fill="#838383"/>
<path d="M96.1079 38.9002C94.7852 38.8997 93.4861 39.254 92.3467 39.926V29.015C92.3467 29.0138 92.3467 29.0128 92.3467 29.0116C92.3467 28.5352 91.9546 28.1431 91.4782 28.1431C91.477 28.1431 91.476 28.1431 91.4748 28.1431H89.4232C88.9468 28.1431 88.5547 28.5352 88.5547 29.0116V54.1776H89.3753C90.4476 54.1762 91.4396 53.5964 91.9672 52.6629C93.196 53.4768 94.6377 53.9109 96.1116 53.9109C100.229 53.9109 103.617 50.5229 103.617 46.4056C103.617 42.2894 100.231 38.902 96.1148 38.9002H96.1079ZM96.1079 50.1121C94.0792 50.1109 92.4104 48.4411 92.4104 46.4124C92.4104 44.3828 94.0806 42.7127 96.1102 42.7127C97.8273 42.7127 99.3297 43.9082 99.7153 45.5815C99.7787 45.8551 99.8107 46.135 99.8107 46.4158C99.8107 48.4435 98.1421 50.1121 96.1144 50.1121C96.1123 50.1121 96.1101 50.1121 96.1079 50.1121Z" fill="#838383"/>
<path d="M107.419 37.5906C108.639 37.5906 109.628 36.6017 109.628 35.3817C109.628 34.1618 108.639 33.1729 107.419 33.1729C106.199 33.1729 105.21 34.1618 105.21 35.3817C105.21 36.6017 106.199 37.5906 107.419 37.5906Z" fill="#838383"/>
<path d="M77.7294 37.5906C78.9493 37.5906 79.9383 36.6017 79.9383 35.3817C79.9383 34.1618 78.9493 33.1729 77.7294 33.1729C76.5095 33.1729 75.5205 34.1618 75.5205 35.3817C75.5205 36.6017 76.5095 37.5906 77.7294 37.5906Z" fill="#838383"/>
<path d="M30.1562 35.851L33.6679 31.0947L31.6676 28.3935C31.1807 27.7342 30.2378 27.5923 29.5784 28.0789L27.4311 29.6689C26.7726 30.1581 26.6322 31.1019 27.1199 31.7615L30.1562 35.851Z" fill="#838383"/>
<path d="M47.7415 50.0885L39.2787 38.6577L35.7568 43.414L43.1904 53.4462C43.6304 54.0397 44.4807 54.1663 45.0745 53.7266L47.468 51.9622C48.0433 51.5146 48.1648 50.6819 47.7415 50.0885Z" fill="#838383"/>
<path fill-rule="evenodd" clip-rule="evenodd" d="M42.3227 31.7392C42.8043 31.0885 42.6671 30.1692 42.0164 29.6875L39.8233 28.0641C39.1725 27.5824 38.2532 27.7196 37.7716 28.3704L21.7652 49.9938C21.2836 50.6444 21.4208 51.5638 22.0715 52.0455L24.2646 53.6689C24.9153 54.1506 25.8346 54.0134 26.3164 53.3626L42.3227 31.7392Z" fill="#838383"/>
<path d="M34.7181 54.0782C36.4932 54.0782 37.9322 52.6392 37.9322 50.8641C37.9322 49.0889 36.4932 47.6499 34.7181 47.6499C32.9429 47.6499 31.5039 49.0889 31.5039 50.8641C31.5039 52.6392 32.9429 54.0782 34.7181 54.0782Z" fill="#838383"/>
</g>
</g>
<defs>
<clipPath id="clip0_408_79">
<rect width="116.284" height="27.0809" fill="white" transform="translate(21.3584 27.4595)"/>
</clipPath>
</defs>
</svg>
