<svg width="136" height="84" viewBox="0 0 136 84" fill="none" xmlns="http://www.w3.org/2000/svg">
<path opacity="0.5" fill-rule="evenodd" clip-rule="evenodd" d="M31.6657 30.1548C29.2025 30.3691 26.8547 31.3234 24.9585 32.8812C24.6168 33.1618 23.8778 33.8857 23.5484 34.2622C22.0122 36.0185 21.0419 38.1729 20.7388 40.5008C20.7073 40.7422 20.6816 40.9555 20.6816 40.9749C20.6816 40.997 23.6431 41.0101 28.6324 41.0101H36.5831V41.9954V42.9806H28.6324C23.6431 42.9806 20.6816 42.9938 20.6816 43.0159C20.6816 43.0353 20.7073 43.2486 20.7388 43.4899C21.0419 45.8179 22.0122 47.9723 23.5484 49.7286C23.8751 50.1021 24.6126 50.825 24.9585 51.1107C28.0238 53.643 32.2135 54.5036 36.0653 53.392C38.0049 52.8323 39.69 51.8453 41.1455 50.4164C42.0142 49.5637 42.6735 48.7067 43.2336 47.7024C45.2003 44.1759 45.2003 39.8149 43.2336 36.2884C42.6735 35.284 42.0142 34.4271 41.1455 33.5744C39.2292 31.6932 36.861 30.5515 34.1618 30.2075C33.6172 30.1381 32.2009 30.1082 31.6657 30.1548ZM90.976 31.8316C89.1688 31.9058 87.7759 32.4007 86.5581 33.4013C85.4404 34.3197 84.8728 35.3684 84.7407 36.7595C84.587 38.3769 85.241 39.8932 86.5306 40.9093C87.5053 41.6773 88.8355 42.3239 90.5238 42.8502C92.455 43.4524 92.7884 43.5615 93.2746 43.7508C94.9315 44.3958 95.5652 44.937 95.8993 45.9921C95.9773 46.2386 95.9876 46.3442 95.9876 46.903C95.9876 47.6154 95.9364 47.853 95.6751 48.353C95.5052 48.6781 94.998 49.1926 94.6514 49.3914C94.1072 49.7034 93.4098 49.9183 92.6436 50.0099C92.0779 50.0775 90.7774 50.0372 90.2689 49.9363C88.7889 49.6426 87.6602 48.8976 87.1381 47.8697C86.9128 47.426 86.8174 47.0584 86.7545 46.3918L86.7309 46.1408H85.4172C84.6948 46.1408 84.0955 46.1537 84.0857 46.1694C84.0422 46.2388 84.1479 47.1054 84.2471 47.493C84.6333 49.0019 85.5631 50.1672 87.0474 51.0026C87.9939 51.5352 89.1323 51.9248 90.2977 52.1148C90.8148 52.1991 92.6273 52.2116 93.1427 52.1345C94.9519 51.8635 96.3151 51.2626 97.282 50.3099C97.9699 49.6322 98.3776 48.8992 98.5879 47.9626C98.6808 47.5489 98.7041 46.4827 98.6306 46.0107C98.3926 44.4825 97.5637 43.3229 96.0253 42.3661C95.571 42.0835 94.6787 41.659 94.0093 41.407C93.5063 41.2175 93.1716 41.1118 91.6919 40.6749C90.8897 40.438 90.2097 40.1799 89.5441 39.8597C88.3374 39.2791 87.6921 38.6323 87.4648 37.7756C87.3723 37.4271 87.3837 36.7367 87.4883 36.3442C87.8367 35.0371 88.8603 34.2488 90.5309 34.001C91.0563 33.9231 92.0537 33.9212 92.5586 33.9971C93.3081 34.1099 94.0484 34.387 94.5572 34.7452C94.8811 34.9732 95.2793 35.4072 95.4743 35.7447C95.7665 36.2503 95.9688 36.9842 95.9688 37.5388V37.7756H97.3121H98.6555L98.6328 37.3945C98.5517 36.0317 97.9819 34.8118 96.9512 33.7946C95.5039 32.3662 93.5545 31.7257 90.976 31.8316ZM49.2723 32.0714C49.2567 32.0869 49.244 36.5555 49.244 42.0016V51.9036H53.1348C57.3566 51.9036 57.521 51.8971 58.4339 51.6951C59.6608 51.4236 60.5651 50.9737 61.3307 50.2537C62.2553 49.3843 62.7311 48.3714 62.8873 46.9402C62.9446 46.4155 62.9096 45.5293 62.8131 45.0626C62.4696 43.4004 61.4078 42.1962 59.7798 41.6223L59.4445 41.5041L59.8253 41.3076C60.7459 40.8326 61.495 40.125 61.9264 39.3227C62.2825 38.6605 62.4134 38.0291 62.3818 37.1249C62.33 35.6378 61.9014 34.5407 61.0382 33.6855C60.1874 32.8425 59.0013 32.356 57.2701 32.14C56.8305 32.0852 56.2548 32.0743 53.031 32.0599C50.9792 32.0507 49.2878 32.0559 49.2723 32.0714ZM72.5522 32.1709C72.5179 32.2531 65.3953 50.6472 64.9293 51.8571C64.9151 51.8938 65.2018 51.9036 66.2855 51.9036H67.6596L68.598 49.3103L69.5365 46.7171L73.7454 46.7077C77.7254 46.6987 77.9561 46.7018 77.9881 46.7634C78.0066 46.7993 78.4429 47.9705 78.9575 49.3661L79.8932 51.9036H81.2426C81.9847 51.9036 82.5919 51.8967 82.5919 51.8883C82.5919 51.8707 75.0405 32.361 74.9612 32.1738L74.9088 32.05H73.7557H72.6025L72.5522 32.1709ZM102.111 41.9767V51.9036H108.498H114.886L114.876 50.8347L114.866 49.7658L109.807 49.7563L104.748 49.7469V46.2522V42.7576H109.12H113.492L113.482 41.6887L113.472 40.6198L109.11 40.6103L104.748 40.6009V37.4036V34.2064H109.761H114.773L114.763 33.1375L114.753 32.0686L108.432 32.0592L102.111 32.0498V41.9767ZM51.91 34.2276C51.8944 34.2432 51.8817 35.6669 51.8817 37.3914V40.5268H54.1942C56.7018 40.5268 56.8565 40.5169 57.4774 40.3174C58.5942 39.9583 59.3367 39.2228 59.6306 38.1845C59.735 37.8157 59.7271 36.7585 59.6167 36.3256C59.362 35.3268 58.7835 34.7687 57.6741 34.4515C56.9707 34.2503 56.7566 34.2357 54.2556 34.2167C52.9811 34.2071 51.9255 34.212 51.91 34.2276ZM72.0622 39.8798C71.1322 42.3929 70.3637 44.4701 70.3544 44.4957C70.3409 44.5326 71.0364 44.5421 73.7516 44.5421C75.6294 44.5421 77.1658 44.5333 77.1658 44.5225C77.1658 44.5018 73.8741 35.6049 73.7975 35.4183C73.7562 35.3178 73.6362 35.6262 72.0622 39.8798ZM51.91 42.6673C51.8944 42.6829 51.8817 44.2822 51.8817 46.2214V49.7472H54.3997C57.1881 49.7472 57.2982 49.7399 57.992 49.5089C59.0947 49.1417 59.8783 48.3286 60.1599 47.2591C60.2751 46.8218 60.3161 46.06 60.2506 45.575C60.0305 43.9461 59.1641 43.0641 57.4774 42.7519C57.0917 42.6806 56.8845 42.674 54.5006 42.6571C53.0913 42.6471 51.9255 42.6517 51.91 42.6673Z" fill="#838383"/>
</svg>
