<svg width="36" height="36" viewBox="0 0 36 36" fill="none" xmlns="http://www.w3.org/2000/svg">
<path fill-rule="evenodd" clip-rule="evenodd" d="M9.91923 8.44214C9.84398 8.47487 9.73127 8.57885 9.66887 8.67321C9.56875 8.82449 9.53813 8.96816 9.40949 9.88979C9.26385 10.9337 9.20436 11.3513 9.13216 11.8368C9.11107 11.9785 9.07263 12.2588 9.04673 12.4596C9.02083 12.6603 8.98218 12.9406 8.96079 13.0823C8.93944 13.2241 8.90061 13.5043 8.87459 13.7051C8.84851 13.9059 8.80896 14.1635 8.78662 14.2775C8.76433 14.3915 8.74608 14.5389 8.74608 14.6051C8.74608 14.7785 8.63711 15.0138 8.52265 15.0876C8.30468 15.2282 8.1166 15.2076 7.64058 14.9907C7.54042 14.9451 7.44257 14.9077 7.42316 14.9077C7.4037 14.9077 7.3078 14.8691 7.21 14.8218C7.1122 14.7746 7.01556 14.7359 6.99524 14.7359C6.97493 14.7359 6.87829 14.6973 6.78049 14.65C6.68269 14.6028 6.58541 14.5641 6.56428 14.5641C6.54315 14.5641 6.46975 14.5366 6.40115 14.503C6.20161 14.405 2.62568 12.982 2.49996 12.9504C2.33559 12.9092 2.01381 13.0119 1.91532 13.1371C1.81289 13.2674 1.80756 13.4728 1.90059 13.7054C1.96523 13.867 2.28504 14.1515 2.98629 14.6715C3.05003 14.7187 3.33316 14.941 3.61552 15.1654C4.11988 15.5663 4.29323 15.7032 4.62155 15.96C5.95254 17.0011 6.72397 17.6363 6.764 17.7242C6.87498 17.9678 6.79089 18.2102 6.52593 18.4103C6.32651 18.5609 5.48055 19.2267 4.42758 20.0618C3.99567 20.4043 3.34669 20.9165 2.98531 21.2C1.91305 22.0412 1.83105 22.1339 1.83105 22.5053C1.83105 22.839 2.1799 23.0745 2.54755 22.9889C2.68302 22.9574 4.74361 22.149 5.26709 21.9221C5.34977 21.8863 5.45607 21.8415 5.50332 21.8227C5.55056 21.8038 5.68083 21.7478 5.79276 21.6982C5.90473 21.6486 6.01224 21.608 6.03165 21.608C6.05111 21.608 6.14702 21.5693 6.24482 21.5221C6.34261 21.4749 6.43925 21.4362 6.45957 21.4362C6.47988 21.4362 6.57652 21.3975 6.67432 21.3503C6.77212 21.3031 6.87816 21.2644 6.91003 21.2644C6.94186 21.2644 6.98627 21.2479 7.00873 21.2278C7.10232 21.1438 8.07111 20.7919 8.20872 20.7919C8.31138 20.7919 8.3999 20.8292 8.49142 20.911C8.63411 21.0385 8.66868 21.1572 8.75076 21.8013C8.77481 21.9903 8.81136 22.2705 8.83198 22.4241C8.89761 22.9131 8.96495 23.4242 9.00464 23.734C9.02581 23.8994 9.06391 24.1893 9.08929 24.3783C9.11472 24.5673 9.17266 25.0118 9.21815 25.3662C9.46378 27.2811 9.43925 27.1504 9.59083 27.3527C9.80536 27.639 10.1312 27.7004 10.4205 27.509C10.622 27.3757 10.7468 27.1344 10.7847 26.805C10.7996 26.6751 10.8308 26.4335 10.8539 26.2681C10.877 26.1028 10.9627 25.4456 11.0444 24.8078C11.1261 24.17 11.2138 23.4935 11.2393 23.3045C11.2648 23.1156 11.3046 22.816 11.3276 22.6388C11.4979 21.329 11.539 21.0787 11.596 21.0033C11.7524 20.7967 12.0479 20.7337 12.2836 20.8566C12.3513 20.8919 12.4247 20.9208 12.4468 20.9208C12.4689 20.9208 12.5669 20.9594 12.6647 21.0067C12.7625 21.0539 12.8584 21.0926 12.8779 21.0926C12.8973 21.0926 13.0048 21.1332 13.1168 21.1828C13.2287 21.2324 13.3638 21.2903 13.4169 21.3116C13.4701 21.3329 13.557 21.3676 13.6102 21.3889C13.6634 21.4101 13.7745 21.4568 13.8572 21.4926C13.9399 21.5285 14.597 21.7928 15.3175 22.08C16.038 22.3673 16.6836 22.6298 16.7522 22.6635C16.8208 22.6972 16.8935 22.7247 16.9138 22.7247C16.934 22.7247 17.0325 22.7611 17.1326 22.8055C17.5354 22.9843 17.6221 23.0038 18.0019 23.0014C18.3833 22.9989 18.4004 22.9941 19.2904 22.6404C19.7865 22.4432 20.3137 22.2269 20.4619 22.1597C20.6101 22.0925 20.7466 22.0375 20.7652 22.0375C20.7838 22.0375 20.879 21.9988 20.9768 21.9516C21.0746 21.9044 21.1713 21.8657 21.1916 21.8657C21.2119 21.8657 21.3085 21.827 21.4063 21.7798C21.5041 21.7326 21.6014 21.6939 21.6225 21.6939C21.6437 21.6939 21.7171 21.6664 21.7857 21.6327C22.1989 21.4298 23.8881 20.7919 24.0121 20.7919C24.1064 20.7919 24.2049 20.8308 24.2881 20.9008C24.4285 21.0189 24.4595 21.1305 24.5503 21.8442C24.5773 22.0568 24.6182 22.3661 24.6412 22.5314C24.6642 22.6968 24.7885 23.6439 24.9174 24.636C25.2461 27.1647 25.2422 27.1405 25.3444 27.2922C25.5582 27.6095 25.8824 27.6995 26.1895 27.5269C26.475 27.3664 26.5158 27.2478 26.6567 26.1671C26.7264 25.6321 26.8045 25.0397 26.8301 24.8508C26.8557 24.6618 26.8956 24.3622 26.9186 24.185C26.9703 23.7874 27.029 23.344 27.0878 22.9073C27.1338 22.5654 27.1762 22.246 27.2603 21.608C27.3298 21.0809 27.334 21.0656 27.4477 20.9335C27.5398 20.8266 27.5786 20.8138 27.8017 20.8166C27.9652 20.8187 28.127 20.8538 28.2671 20.9175C28.3852 20.9713 28.5205 21.0301 28.5677 21.0482C28.6829 21.0923 28.8368 21.156 29.0187 21.2349C29.1014 21.2708 29.6619 21.4965 30.2643 21.7364C30.8666 21.9764 31.4156 22.2003 31.4842 22.234C31.5528 22.2677 31.6262 22.2952 31.6473 22.2952C31.6685 22.2952 31.7658 22.3339 31.8636 22.3811C31.9614 22.4284 32.0573 22.467 32.0767 22.467C32.0961 22.467 32.2036 22.5073 32.3156 22.5564C32.6414 22.6995 32.7626 22.7506 33.0795 22.8785C33.5777 23.0795 33.9547 23.0217 34.1105 22.7205C34.1962 22.5548 34.1885 22.4138 34.0816 22.1862C33.9917 21.9949 33.8568 21.8774 32.4977 20.8065C32.3678 20.7041 31.9017 20.3352 31.4621 19.9867C31.0224 19.6382 30.3606 19.1151 29.9915 18.8242C29.6223 18.5332 29.2911 18.2535 29.2554 18.2025C29.172 18.0834 29.1719 17.7882 29.2552 17.6692C29.2908 17.6184 29.6822 17.2915 30.125 16.9427C30.5677 16.594 30.9905 16.2592 31.0645 16.1987C31.1385 16.1383 31.3028 16.007 31.4296 15.907C32.4314 15.1166 32.8934 14.7536 33.2748 14.4568C33.9239 13.9517 34.0066 13.8735 34.0926 13.684C34.2002 13.4473 34.1921 13.3052 34.0622 13.1509C33.8325 12.8778 33.5628 12.8843 32.8628 13.1797C32.6738 13.2595 32.4902 13.3351 32.4547 13.3478C32.4193 13.3604 32.3084 13.4074 32.2082 13.4521C32.1081 13.4968 32.0102 13.5333 31.9908 13.5333C31.9714 13.5333 31.8755 13.572 31.7777 13.6192C31.6799 13.6665 31.5832 13.7051 31.5629 13.7051C31.5426 13.7051 31.446 13.7438 31.3482 13.791C31.2504 13.8383 31.1537 13.8769 31.1334 13.8769C31.1131 13.8769 31.0164 13.9156 30.9186 13.9628C30.8208 14.0101 30.7242 14.0487 30.7039 14.0487C30.6836 14.0487 30.5869 14.0874 30.4891 14.1346C30.3913 14.1819 30.2853 14.2205 30.2534 14.2205C30.2216 14.2205 30.1772 14.237 30.1547 14.2571C30.1323 14.2773 29.6147 14.4925 29.0046 14.7354C27.7725 15.226 27.6347 15.2546 27.4336 15.062C27.3039 14.9377 27.2545 14.7623 27.1725 14.1346C27.1463 13.9338 27.1075 13.6536 27.0864 13.5118C27.0653 13.3701 27.0264 13.0995 27 12.9105C26.9736 12.7216 26.9347 12.451 26.9136 12.3092C26.8926 12.1675 26.8541 11.8872 26.8282 11.6864C26.8023 11.4857 26.7632 11.2054 26.7413 11.0637C26.7194 10.9219 26.6414 10.3711 26.5679 9.83958C26.4152 8.73476 26.3686 8.60656 26.0671 8.46061C25.8507 8.35581 25.7138 8.38777 25.5283 8.58641C25.3465 8.78111 25.3659 8.68013 25.0051 11.2999C24.9222 11.9023 24.8345 12.5304 24.8101 12.6958C24.7859 12.8611 24.7276 13.2767 24.6807 13.6192C24.5384 14.6576 24.5006 14.8556 24.4195 14.9891C24.2845 15.211 23.9602 15.2407 23.6054 15.0637C23.5281 15.0252 23.4476 14.9936 23.4265 14.9936C23.4053 14.9936 23.308 14.955 23.2102 14.9077C23.1124 14.8605 23.0158 14.8218 22.9955 14.8218C22.9752 14.8218 22.8785 14.7832 22.7807 14.7359C22.6829 14.6887 22.5863 14.65 22.566 14.65C22.5457 14.65 22.449 14.6114 22.3512 14.5641C22.2534 14.5169 22.1568 14.4782 22.1365 14.4782C22.1162 14.4782 22.0195 14.4396 21.9217 14.3923C21.8239 14.3451 21.7273 14.3064 21.707 14.3064C21.6867 14.3064 21.59 14.2678 21.4922 14.2205C21.3944 14.1733 21.2978 14.1346 21.2775 14.1346C21.2572 14.1346 21.1605 14.096 21.0627 14.0487C20.9649 14.0015 20.8683 13.9628 20.848 13.9628C20.8277 13.9628 20.731 13.9242 20.6332 13.8769C20.5354 13.8297 20.4403 13.791 20.4218 13.791C20.4033 13.791 20.2826 13.7427 20.1535 13.6836C20.0244 13.6246 19.903 13.5756 19.8837 13.5748C19.8645 13.574 19.7715 13.536 19.677 13.4904C19.5825 13.4447 19.4896 13.4067 19.4706 13.4059C19.4516 13.4051 19.3549 13.3683 19.2558 13.3241C18.4863 12.981 18.1318 12.897 17.7511 12.9677C17.5996 12.9957 16.3387 13.4775 14.8021 14.0943C13.2623 14.7124 12.0522 15.1747 11.9641 15.1784C11.7719 15.1867 11.5954 15.0743 11.5186 14.8949C11.4862 14.8193 11.4377 14.5931 11.4109 14.3923C11.384 14.1915 11.3443 13.9113 11.3227 13.7695C11.301 13.6278 11.2439 13.2219 11.1957 12.8676C10.7029 9.24716 10.6499 8.90983 10.5452 8.72347C10.4647 8.58023 10.1956 8.3763 10.0932 8.38094C10.0728 8.38188 9.99447 8.40941 9.91923 8.44214ZM17.873 14.2917C17.8258 14.3017 17.7465 14.3183 17.6968 14.3288C17.6253 14.3439 16.8982 14.8963 16.3268 15.3695C16.2796 15.4087 16.1513 15.5092 16.0417 15.593C15.2063 16.2315 13.4202 17.6763 13.3851 17.7418C13.3211 17.8613 13.3325 18.1396 13.4056 18.244C13.4613 18.3235 14.8045 19.3853 15.9118 20.2252C16.1165 20.3803 16.2935 20.5183 16.3054 20.5316C16.3172 20.545 16.4428 20.6425 16.5845 20.7482C16.7263 20.854 16.9816 21.0526 17.1518 21.1896C17.5133 21.4805 17.7657 21.6057 17.9932 21.6071C18.2733 21.6087 18.3536 21.5562 19.866 20.3839C20.0488 20.2422 20.7314 19.7148 21.3827 19.212C22.2047 18.5775 22.583 18.2591 22.6194 18.1712C22.6837 18.0158 22.6461 17.7877 22.5369 17.6704C22.4662 17.5945 20.381 15.9262 19.8331 15.5071C19.7236 15.4233 19.5954 15.3228 19.5481 15.2836C19.1413 14.9466 18.4537 14.4161 18.367 14.3722C18.238 14.307 17.9916 14.2668 17.873 14.2917Z" fill="#838383"/>
</svg>
